<svg viewBox="1399 58 203 60" version="1.1" xmlns="http://www.w3.org/2000/svg" xmlns:xlink="http://www.w3.org/1999/xlink">
  <defs>
    <polygon id="path-1" points="0 60 203 60 203 0 0 0"></polygon>
  </defs>
  <g id="appstore" stroke="none" stroke-width="1" fill="none" fill-rule="evenodd" transform="translate(1399.000000, 58.000000)">
    <path d="M201.544415,52.902 C201.544415,56.076 198.967067,58.647 195.779215,58.647 L7.11101481,58.647 C3.92466667,58.647 1.3382963,56.076 1.3382963,52.902 L1.3382963,7.0875 C1.3382963,3.915 3.92466667,1.335 7.11101481,1.335 L195.777711,1.335 C198.967067,1.335 201.542911,3.915 201.542911,7.0875 L201.544415,52.902 Z" id="Fill-3" fill="#000000"></path>
    <path d="M45.3502,29.676 C45.3065926,24.8415 49.3184741,22.4895 49.5019259,22.38 C47.2298296,19.0755 43.7081556,18.624 42.4706074,18.588 C39.5128222,18.2775 36.6437556,20.3535 35.1370444,20.3535 C33.6002593,20.3535 31.2800444,18.618 28.7793852,18.669 C25.5614593,18.7185 22.5510444,20.577 20.8999778,23.463 C17.4925852,29.3475 20.0338444,37.995 23.2983852,42.7515 C24.9314074,45.081 26.8396074,47.682 29.3372593,47.5905 C31.7807778,47.49 32.6935259,46.0365 35.6422889,46.0365 C38.5639852,46.0365 39.4210963,47.5905 41.9683704,47.532 C44.5908296,47.49 46.2418963,45.192 47.8177778,42.8415 C49.7049259,40.1715 50.4627926,37.542 50.4928667,37.407 C50.4327185,37.386 45.3998222,35.4705 45.3502,29.676" id="Fill-5" fill="#FFFFFF"></path>
    <path d="M40.5383481,15.459 C41.8525852,13.8195 42.7518,11.589 42.5021852,9.3255 C40.6,9.4095 38.219637,10.6365 36.8512667,12.2415 C35.6392815,13.6545 34.5566148,15.9705 34.8363037,18.1485 C36.9730667,18.3075 39.1669704,17.073 40.5383481,15.459" id="Fill-7" fill="#FFFFFF"></path>
    <mask id="mask-2" fill="white">
      <use xlink:href="#path-1"></use>
    </mask>
    <g id="Clip-10"></g>
    <polygon id="Fill-9" fill="#FFFFFF" mask="url(#mask-2)" points="65.0066148 47.256 67.9298148 47.256 67.9298148 28.113 65.0066148 28.113"></polygon>
    <path d="M75.5626148,28.572 C74.7867037,31.29 73.866437,33.522 72.8018148,35.268 L70.9883481,35.457 C71.7823037,33.297 72.3507037,31.092 72.6935481,28.842 L75.5626148,28.572 Z" id="Fill-11" fill="#FFFFFF" mask="url(#mask-2)"></path>
    <path d="M84.5487481,39.6675 L83.0059481,34.9155 C82.8435481,34.431 82.5367926,33.2865 82.0856815,31.4865 L82.0315481,31.4865 C81.8511037,32.2605 81.5623926,33.4035 81.1654148,34.9155 L79.6496815,39.6675 L84.5487481,39.6675 Z M89.8808815,47.256 L86.7682148,47.256 L85.0630148,41.9115 L79.1354148,41.9115 L77.5114148,47.256 L74.4799481,47.256 L80.3534148,29.058 L83.9803481,29.058 L89.8808815,47.256 Z" id="Fill-12" fill="#FFFFFF" mask="url(#mask-2)"></path>
    <path d="M102.005244,40.641 C102.005244,39.363 101.716533,38.31 101.139111,37.4835 C100.507556,36.6195 99.6594667,36.1875 98.5948444,36.1875 C97.8730667,36.1875 97.2174519,36.426 96.6325111,36.9045 C96.0460667,37.38 95.6626222,38.0055 95.4821778,38.7795 C95.3919556,39.1395 95.3468444,39.4365 95.3468444,39.6705 L95.3468444,41.8575 C95.3468444,42.813 95.6400667,43.6185 96.2265111,44.274 C96.8129556,44.931 97.5753333,45.2595 98.5136444,45.2595 C99.6143556,45.2595 100.471467,44.8365 101.084978,43.9905 C101.698489,43.143 102.005244,42.0285 102.005244,40.641 M104.982578,40.5315 C104.982578,42.7635 104.378089,44.5275 103.167607,45.8235 C102.084941,46.977 100.74063,47.5515 99.1346741,47.5515 C97.4024074,47.5515 96.1573407,46.9305 95.3994741,45.6885 L95.3453407,45.6885 L95.3453407,52.6005 L92.4221407,52.6005 L92.4221407,38.451 C92.4221407,37.0455 92.3860519,35.607 92.3138741,34.131 L94.8852074,34.131 L95.0476074,36.2115 L95.1017407,36.2115 C96.0761407,34.644 97.5557852,33.8625 99.5406741,33.8625 C101.092496,33.8625 102.387185,34.4745 103.424741,35.6985 C104.4638,36.924 104.982578,38.5335 104.982578,40.5315" id="Fill-13" fill="#FFFFFF" mask="url(#mask-2)"></path>
    <path d="M117.135511,40.641 C117.135511,39.363 116.848304,38.31 116.269378,37.4835 C115.637822,36.6195 114.789733,36.1875 113.726615,36.1875 C113.004837,36.1875 112.349222,36.426 111.764281,36.9045 C111.176333,37.38 110.792889,38.0055 110.612444,38.7795 C110.520719,39.1395 110.477111,39.4365 110.477111,39.6705 L110.477111,41.8575 C110.477111,42.813 110.770333,43.6185 111.355274,44.274 C111.943222,44.931 112.7056,45.2595 113.642407,45.2595 C114.743119,45.2595 115.601733,44.8365 116.215244,43.9905 C116.827252,43.143 117.135511,42.0285 117.135511,40.641 M120.114348,40.5315 C120.114348,42.7635 119.509859,44.5275 118.299378,45.8235 C117.218215,46.977 115.873904,47.5515 114.266444,47.5515 C112.534178,47.5515 111.289111,46.9305 110.531244,45.6885 L110.478615,45.6885 L110.478615,52.6005 L107.553911,52.6005 L107.553911,38.451 C107.553911,37.0455 107.519326,35.607 107.448652,34.131 L110.018481,34.131 L110.179378,36.2115 L110.235015,36.2115 C111.209415,34.644 112.687556,33.8625 114.672444,33.8625 C116.22577,33.8625 117.518956,34.4745 118.558015,35.6985 C119.594067,36.924 120.114348,38.5335 120.114348,40.5315" id="Fill-14" fill="#FFFFFF" mask="url(#mask-2)"></path>
    <path d="M137.028007,42.1545 C137.028007,43.701 136.488178,44.961 135.410022,45.9345 C134.220593,46.9965 132.563511,47.5275 130.440281,47.5275 C128.474941,47.5275 126.900563,47.1495 125.711133,46.3935 L126.386296,43.9635 C127.667452,44.739 129.076422,45.1245 130.6102,45.1245 C131.710911,45.1245 132.569526,44.877 133.183037,44.3805 C133.796548,43.8855 134.104807,43.2225 134.104807,42.393 C134.104807,41.6535 133.852185,41.0325 133.346941,40.527 C132.841696,40.023 132.001126,39.5535 130.829741,39.12 C127.63437,37.9305 126.035933,36.1905 126.035933,33.9015 C126.035933,32.4045 126.596815,31.179 127.71557,30.2235 C128.834326,29.268 130.322993,28.7895 132.183074,28.7895 C133.843163,28.7895 135.222059,29.0775 136.324274,29.6535 L135.593474,32.028 C134.564941,31.47 133.39957,31.191 132.101874,31.191 C131.073341,31.191 130.268859,31.443 129.692941,31.947 C129.205741,32.397 128.962141,32.946 128.962141,33.5955 C128.962141,34.314 129.24183,34.908 129.802711,35.3775 C130.286904,35.8095 131.171081,36.2775 132.455244,36.7815 C134.023607,37.4115 135.178452,38.1495 135.918274,38.997 C136.658096,39.8445 137.028007,40.893 137.028007,42.1545" id="Fill-15" fill="#FFFFFF" mask="url(#mask-2)"></path>
    <path d="M146.690807,36.321 L143.471378,36.321 L143.471378,42.693 C143.471378,44.313 144.038274,45.123 145.175074,45.123 C145.698363,45.123 146.132933,45.078 146.475778,44.988 L146.555474,47.202 C145.979556,47.4195 145.221689,47.526 144.281874,47.526 C143.12703,47.526 142.226311,47.1765 141.576711,46.473 C140.924104,45.771 140.602311,44.5935 140.602311,42.9375 L140.602311,36.3225 L138.679074,36.3225 L138.679074,34.1355 L140.602311,34.1355 L140.602311,31.7325 L143.471378,30.8685 L143.471378,34.1355 L146.690807,34.1355 L146.690807,36.321" id="Fill-16" fill="#FFFFFF" mask="url(#mask-2)"></path>
    <path d="M158.194141,40.6815 C158.194141,39.471 157.932496,38.4345 157.407704,37.5675 C156.794193,36.522 155.922044,35.997 154.782237,35.997 C153.610852,35.997 152.717652,36.522 152.104141,37.5675 C151.580852,38.4345 151.320711,39.489 151.320711,40.734 C151.320711,41.946 151.582356,42.9825 152.104141,43.848 C152.735696,44.895 153.619874,45.42 154.756674,45.42 C155.87543,45.42 156.750585,44.8875 157.382141,43.8225 C157.920467,42.9375 158.194141,41.8905 158.194141,40.6815 M161.225607,40.5885 C161.225607,42.603 160.646681,44.259 159.493341,45.5565 C158.282859,46.8885 156.679911,47.5545 154.676978,47.5545 C152.744719,47.5545 151.204926,46.9155 150.060607,45.6375 C148.914785,44.3595 148.341874,42.7485 148.341874,40.8045 C148.341874,38.7705 148.93283,37.1055 150.116244,35.8095 C151.296652,34.5135 152.889074,33.8655 154.892007,33.8655 C156.824267,33.8655 158.374585,34.5045 159.547474,35.781 C160.664726,37.023 161.225607,38.625 161.225607,40.5885" id="Fill-17" fill="#FFFFFF" mask="url(#mask-2)"></path>
    <path d="M170.723,36.699 C170.435793,36.645 170.129037,36.618 169.804237,36.618 C168.775704,36.618 167.980244,37.005 167.42237,37.7775 C166.93517,38.463 166.69157,39.327 166.69157,40.371 L166.69157,47.256 L163.769874,47.256 L163.796941,38.265 C163.796941,36.753 163.762356,35.376 163.688674,34.134 L166.234444,34.134 L166.339704,36.645 L166.422407,36.645 C166.730667,35.781 167.214859,35.0895 167.885511,34.566 C168.535111,34.098 169.238844,33.864 169.996711,33.864 C170.267378,33.864 170.510978,33.882 170.724504,33.9165 L170.724504,36.699 L170.723,36.699 Z" id="Fill-18" fill="#FFFFFF" mask="url(#mask-2)"></path>
    <path d="M181.011341,39.318 C181.029385,38.454 180.838415,37.7085 180.441437,37.077 C179.936193,36.267 179.160281,35.862 178.1122,35.862 C177.157348,35.862 176.382941,36.258 175.78597,37.0485 C175.29877,37.68 175.010059,38.436 174.919837,39.318 L181.011341,39.318 M183.797704,40.074 C183.797704,40.5975 183.760111,41.037 183.689437,41.397 L174.919837,41.397 C174.954422,42.693 175.381474,43.683 176.19197,44.367 C176.931793,44.979 177.889652,45.2835 179.061037,45.2835 C180.358733,45.2835 181.542148,45.0765 182.605267,44.664 L183.066904,46.689 C181.821837,47.229 180.349711,47.499 178.655037,47.499 C176.614511,47.499 175.013067,46.902 173.850704,45.7035 C172.688341,44.5065 172.106407,42.9 172.106407,40.884 C172.106407,38.904 172.646237,37.257 173.7274,35.943 C174.867207,34.5375 176.399481,33.8385 178.330237,33.8385 C180.224904,33.8385 181.660941,34.539 182.635341,35.943 C183.411252,37.059 183.797704,38.436 183.797704,40.074" id="Fill-19" fill="#FFFFFF" mask="url(#mask-2)"></path>
    <polygon id="Fill-20" fill="#FFFFFF" mask="url(#mask-2)" points="71.9371852 11.667 69.1222519 11.667 69.1222519 20.1495 67.5463704 20.1495 67.5463704 11.667 64.7464741 11.667 64.7464741 10.344 71.9371852 10.344"></polygon>
    <path d="M78.8076074,10.11 L77.0422593,12.219 L75.947563,12.219 L77.2166889,10.11 L78.8076074,10.11 Z M78.1640222,15.873 C78.1745481,15.4065 78.0707926,15.0045 77.8587704,14.6655 C77.5850963,14.229 77.1685704,14.01 76.6046815,14.01 C76.0889111,14.01 75.6708815,14.223 75.3490889,14.6505 C75.0874444,14.991 74.932563,15.3975 74.8829407,15.873 L78.1640222,15.873 L78.1640222,15.873 Z M79.6677259,16.2795 C79.6677259,16.5615 79.6466741,16.7985 79.6090815,16.992 L74.8829407,16.992 C74.9024889,17.691 75.1295481,18.2235 75.5671259,18.5925 C75.9671111,18.9225 76.4813778,19.0875 77.1129333,19.0875 C77.8136593,19.0875 78.4512296,18.9765 79.0241407,18.753 L79.2707481,19.845 C78.6000963,20.136 77.8076444,20.2815 76.8933926,20.2815 C75.7956889,20.2815 74.9310593,19.959 74.3040148,19.314 C73.6769704,18.669 73.3642,17.8035 73.3642,16.7175 C73.3642,15.651 73.6544148,14.763 74.2393556,14.055 C74.851363,13.299 75.6768963,12.921 76.7174593,12.921 C77.7384741,12.921 78.5113778,13.299 79.0361704,14.055 C79.4572074,14.655 79.6677259,15.3975 79.6677259,16.2795 L79.6677259,16.2795 Z" id="Fill-21" fill="#FFFFFF" mask="url(#mask-2)"></path>
    <polygon id="Fill-22" fill="#FFFFFF" mask="url(#mask-2)" points="81.9548593 20.1495 83.5307407 20.1495 83.5307407 9.834 81.9548593 9.834"></polygon>
    <path d="M91.3063926,10.11 L89.5410444,12.219 L88.4478519,12.219 L89.7169778,10.11 L91.3063926,10.11 Z M90.6628074,15.873 C90.6733333,15.4065 90.5695778,15.0045 90.3575556,14.6655 C90.0838815,14.229 89.6673556,14.01 89.1034667,14.01 C88.5876963,14.01 88.1696667,14.223 87.8478741,14.6505 C87.5862296,14.991 87.4313481,15.3975 87.3817259,15.873 L90.6628074,15.873 L90.6628074,15.873 Z M92.1665111,16.2795 C92.1665111,16.5615 92.1454593,16.7985 92.1078667,16.992 L87.3817259,16.992 C87.4012741,17.691 87.6283333,18.2235 88.0659111,18.5925 C88.4658963,18.9225 88.980163,19.0875 89.6117185,19.0875 C90.3124444,19.0875 90.9500148,18.9765 91.5229259,18.753 L91.7695333,19.845 C91.0988815,20.136 90.3064296,20.2815 89.3921778,20.2815 C88.2944741,20.2815 87.4298444,19.959 86.8028,19.314 C86.1757556,18.669 85.8629852,17.8035 85.8629852,16.7175 C85.8629852,15.651 86.1532,14.763 86.7381407,14.055 C87.3501481,13.299 88.1756815,12.921 89.2162444,12.921 C90.2372593,12.921 91.010163,13.299 91.5349556,14.055 C91.9574963,14.655 92.1665111,15.3975 92.1665111,16.2795 L92.1665111,16.2795 Z" id="Fill-23" fill="#FFFFFF" mask="url(#mask-2)"></path>
    <path d="M99.5166148,13.2675 L99.211363,14.46 C98.8113778,14.2665 98.3557556,14.169 97.8399852,14.169 C97.1497852,14.169 96.602437,14.4 96.1979407,14.8605 C95.7949481,15.321 95.5934519,15.906 95.5934519,16.614 C95.5934519,17.361 95.8054741,17.952 96.2280148,18.3885 C96.6505556,18.825 97.1888815,19.044 97.8399852,19.044 C98.3256815,19.044 98.8023556,18.948 99.2685037,18.753 L99.4880444,19.932 C98.9722741,20.175 98.3226741,20.2965 97.5332296,20.2965 C96.4535704,20.2965 95.5934519,19.9695 94.9513704,19.314 C94.3092889,18.6585 93.989,17.784 93.989,16.6875 C93.989,15.5925 94.3333481,14.691 95.0235481,13.989 C95.7137481,13.287 96.6415333,12.9345 97.8099111,12.9345 C98.4715407,12.933 99.0414444,13.044 99.5166148,13.2675" id="Fill-24" fill="#FFFFFF" mask="url(#mask-2)"></path>
    <path d="M107.829089,20.1495 L106.254711,20.1495 L106.254711,16.1295 C106.254711,14.862 105.779541,14.2275 104.824689,14.2275 C104.096896,14.2275 103.594659,14.595 103.322489,15.33 C103.27437,15.4845 103.248807,15.6735 103.248807,15.8955 L103.248807,20.148 L101.672926,20.148 L101.672926,9.834 L103.248807,9.834 L103.248807,14.0955 L103.278881,14.0955 C103.776607,13.32 104.483348,12.933 105.40963,12.933 C106.062237,12.933 106.599059,13.146 107.027615,13.5735 C107.56143,14.106 107.829089,14.898 107.829089,15.945 L107.829089,20.1495" id="Fill-25" fill="#FFFFFF" mask="url(#mask-2)"></path>
    <path d="M114.275467,17.7195 L114.275467,16.629 C112.537185,16.599 111.668044,17.0745 111.668044,18.054 C111.668044,18.423 111.767289,18.699 111.970289,18.8835 C112.173289,19.068 112.431926,19.1595 112.740185,19.1595 C113.086037,19.1595 113.409333,19.05 113.704059,18.8325 C114.000289,18.6135 114.182237,18.336 114.249904,17.9955 C114.266444,17.919 114.275467,17.826 114.275467,17.7195 M115.911496,20.1495 L114.496511,20.1495 L114.379222,19.335 L114.335615,19.335 C113.851422,19.9845 113.161222,20.31 112.265015,20.31 C111.595867,20.31 111.054533,20.0955 110.64703,19.6695 C110.277119,19.2825 110.092163,18.801 110.092163,18.2295 C110.092163,17.3655 110.453052,16.707 111.179341,16.251 C111.904126,15.795 112.923637,15.5715 114.23637,15.582 L114.23637,15.45 C114.23637,14.5185 113.746163,14.0535 112.764244,14.0535 C112.065022,14.0535 111.448504,14.229 110.916193,14.577 L110.595904,13.545 C111.254526,13.1385 112.06803,12.9345 113.027393,12.9345 C114.879956,12.9345 115.809244,13.9095 115.809244,15.8595 L115.809244,18.4635 C115.809244,19.17 115.84383,19.7325 115.911496,20.1495" id="Fill-26" fill="#FFFFFF" mask="url(#mask-2)"></path>
    <path d="M122.314267,14.4615 C122.157881,14.4315 121.993978,14.418 121.818044,14.418 C121.266185,14.418 120.83763,14.6265 120.533881,15.0435 C120.272237,15.4125 120.139911,15.8775 120.139911,16.44 L120.139911,20.151 L118.567037,20.151 L118.582074,15.306 C118.582074,14.4915 118.561022,13.749 118.52343,13.08 L119.894807,13.08 L119.953452,14.433 L119.997059,14.433 C120.160963,13.9665 120.422607,13.593 120.783496,13.3125 C121.132356,13.0605 121.511289,12.9345 121.920296,12.9345 C122.067659,12.9345 122.199985,12.9435 122.314267,12.963 L122.314267,14.4615 Z" id="Fill-27" fill="#FFFFFF" mask="url(#mask-2)"></path>
    <path d="M128.908007,17.124 L128.908007,15.873 C128.908007,15.3975 128.757637,14.991 128.461407,14.6505 C128.16217,14.31 127.771207,14.142 127.281,14.142 C126.744178,14.142 126.303593,14.364 125.956237,14.811 C125.610385,15.258 125.435956,15.8535 125.435956,16.6005 C125.435956,17.28 125.596852,17.8275 125.920148,18.2445 C126.249459,18.7005 126.703578,18.9285 127.279496,18.9285 C127.631363,18.9285 127.945637,18.825 128.225326,18.6165 C128.505015,18.408 128.700496,18.1245 128.819289,17.766 C128.877933,17.589 128.908007,17.3745 128.908007,17.124 L128.908007,17.124 Z M130.539526,13.0785 C130.501933,13.6515 130.480881,14.3205 130.480881,15.087 L130.480881,19.131 C130.480881,20.6535 130.139541,21.7215 129.46137,22.332 C128.838837,22.8945 127.963681,23.175 126.835904,23.175 C125.852481,23.175 125.058526,22.9905 124.457044,22.6215 L124.820941,21.414 C125.414904,21.7725 126.087059,21.9525 126.835904,21.9525 C128.225326,21.9525 128.921541,21.2055 128.921541,19.7115 L128.921541,19.0275 L128.891467,19.0275 C128.453889,19.746 127.757674,20.1045 126.80583,20.1045 C125.948719,20.1045 125.243481,19.7805 124.691622,19.1295 C124.136756,18.48 123.860074,17.655 123.860074,16.656 C123.860074,15.522 124.180363,14.604 124.820941,13.9065 C125.414904,13.257 126.139689,12.9315 126.993793,12.9315 C127.957667,12.9315 128.647867,13.305 129.0674,14.052 L129.094467,14.052 L129.153111,13.077 L130.539526,13.077 L130.539526,13.0785 Z" id="Fill-28" fill="#FFFFFF" mask="url(#mask-2)"></path>
    <path d="M137.612948,15.873 C137.624978,15.4065 137.521222,15.0045 137.307696,14.6655 C137.034022,14.229 136.617496,14.01 136.053607,14.01 C135.539341,14.01 135.119807,14.223 134.799519,14.6505 C134.537874,14.991 134.382993,15.3975 134.331867,15.873 L137.612948,15.873 M139.116652,16.2795 C139.116652,16.5615 139.0956,16.7985 139.058007,16.992 L134.331867,16.992 C134.352919,17.691 134.578474,18.2235 135.016052,18.5925 C135.416037,18.9225 135.931807,19.0875 136.563363,19.0875 C137.262585,19.0875 137.900156,18.9765 138.47457,18.753 L138.721178,19.845 C138.049022,20.136 137.258074,20.2815 136.342319,20.2815 C135.244615,20.2815 134.379985,19.959 133.754444,19.314 C133.125896,18.669 132.81463,17.8035 132.81463,16.7175 C132.81463,15.651 133.104844,14.763 133.689785,14.055 C134.300289,13.299 135.125822,12.921 136.167889,12.921 C137.1874,12.921 137.961807,13.299 138.485096,14.055 C138.907637,14.655 139.116652,15.3975 139.116652,16.2795" id="Fill-29" fill="#FFFFFF" mask="url(#mask-2)"></path>
    <path d="M145.154022,14.4615 C144.997637,14.4315 144.833733,14.418 144.6578,14.418 C144.102933,14.418 143.677385,14.6265 143.373637,15.0435 C143.111993,15.4125 142.979667,15.8775 142.979667,16.44 L142.979667,20.151 L141.402281,20.151 L141.417319,15.306 C141.417319,14.4915 141.399274,13.749 141.361681,13.08 L142.730052,13.08 L142.788696,14.433 L142.832304,14.433 C142.996207,13.9665 143.260859,13.593 143.618741,13.3125 C143.970607,13.0605 144.349541,12.9345 144.758548,12.9345 C144.902904,12.9345 145.03523,12.9435 145.152519,12.963 L145.152519,14.4615 L145.154022,14.4615 Z" id="Fill-30" fill="#FFFFFF" mask="url(#mask-2)"></path>
    <path d="M156.09497,17.1675 L156.09497,15.9885 C156.09497,15.7845 156.079933,15.6195 156.051363,15.4935 C155.962644,15.1155 155.771674,14.7975 155.478452,14.541 C155.18523,14.2845 154.834867,14.1555 154.424356,14.1555 C153.839415,14.1555 153.379281,14.388 153.040948,14.8545 C152.702615,15.321 152.535704,15.9165 152.535704,16.644 C152.535704,17.343 152.6966,17.91 153.019896,18.3465 C153.361237,18.8115 153.818363,19.044 154.394281,19.044 C154.911556,19.044 155.328081,18.8505 155.639348,18.462 C155.941593,18.1035 156.09497,17.6715 156.09497,17.1675 M157.727993,20.1495 L156.326541,20.1495 L156.252859,19.014 L156.209252,19.014 C155.762652,19.878 155.004785,20.31 153.935652,20.31 C153.078541,20.31 152.370296,19.9755 151.806407,19.3065 C151.242519,18.6375 150.961326,17.769 150.961326,16.7025 C150.961326,15.558 151.266578,14.631 151.877081,13.923 C152.471044,13.263 153.201844,12.933 154.06497,12.933 C155.019822,12.933 155.685963,13.2525 156.064896,13.893 L156.09497,13.893 L156.09497,9.834 L157.669348,9.834 L157.669348,18.2445 C157.669348,18.933 157.688896,19.5675 157.727993,20.1495" id="Fill-31" fill="#FFFFFF" mask="url(#mask-2)"></path>
    <path d="M164.144296,17.7195 L164.144296,16.629 C162.403007,16.599 161.533867,17.0745 161.533867,18.054 C161.533867,18.423 161.636119,18.699 161.839119,18.8835 C162.042119,19.068 162.297748,19.1595 162.606007,19.1595 C162.954867,19.1595 163.275156,19.05 163.572889,18.8325 C163.866111,18.6135 164.048059,18.336 164.115726,17.9955 C164.135274,17.919 164.144296,17.826 164.144296,17.7195 M165.777319,20.1495 L164.362333,20.1495 L164.248052,19.335 L164.204444,19.335 C163.717244,19.9845 163.027044,20.31 162.133844,20.31 C161.461689,20.31 160.920356,20.0955 160.512852,19.6695 C160.142941,19.2825 159.960993,18.801 159.960993,18.2295 C159.960993,17.3655 160.321881,16.707 161.04817,16.251 C161.769948,15.795 162.789459,15.5715 164.102193,15.582 L164.102193,15.45 C164.102193,14.5185 163.611985,14.0535 162.633074,14.0535 C161.933852,14.0535 161.317333,14.229 160.783519,14.577 L160.46323,13.545 C161.123356,13.1385 161.935356,12.9345 162.894719,12.9345 C164.750289,12.9345 165.67657,13.9095 165.67657,15.8595 L165.67657,18.4635 C165.675067,19.17 165.709652,19.7325 165.777319,20.1495" id="Fill-32" fill="#FFFFFF" mask="url(#mask-2)"></path>
    <path d="M174.587519,20.1495 L173.010133,20.1495 L173.010133,16.0995 C173.010133,14.8515 172.534963,14.2275 171.583119,14.2275 C171.115467,14.2275 170.738037,14.3985 170.443311,14.742 C170.153096,15.0855 170.005733,15.4905 170.005733,15.954 L170.005733,20.148 L168.431356,20.148 L168.431356,15.099 C168.431356,14.478 168.410304,13.8045 168.372711,13.0755 L169.759126,13.0755 L169.832807,14.181 L169.876415,14.181 C170.058363,13.8375 170.332037,13.554 170.692926,13.3275 C171.118474,13.0635 171.598156,12.93 172.119941,12.93 C172.783074,12.93 173.33343,13.143 173.771007,13.5705 C174.313844,14.094 174.587519,14.8755 174.587519,15.9135 L174.587519,20.1495" id="Fill-33" fill="#FFFFFF" mask="url(#mask-2)"></path>
    <path d="M181.692519,18.1185 C181.692519,18.7755 181.448919,19.3035 180.964726,19.701 C180.477526,20.0985 179.806874,20.2965 178.949763,20.2965 C178.142274,20.2965 177.458089,20.136 176.8942,19.8165 L177.229526,18.6525 C177.77537,18.9825 178.354296,19.1475 178.9648,19.1475 C179.772289,19.1475 180.175281,18.852 180.175281,18.2595 C180.175281,17.9985 180.08957,17.7825 179.913637,17.6115 C179.737704,17.442 179.426437,17.274 178.979837,17.1105 C177.716726,16.644 177.08517,15.966 177.08517,15.0735 C177.08517,14.463 177.316741,13.953 177.784393,13.545 C178.252044,13.137 178.868563,12.9345 179.636956,12.9345 C180.336178,12.9345 180.934652,13.077 181.430874,13.362 L181.092541,14.4915 C180.636919,14.22 180.155733,14.085 179.650489,14.085 C179.31817,14.085 179.059533,14.163 178.874578,14.3175 C178.69263,14.4735 178.597896,14.67 178.597896,14.913 C178.597896,15.1545 178.694133,15.3525 178.888111,15.507 C179.055022,15.6525 179.375311,15.8115 179.851985,15.9855 C181.079007,16.449 181.692519,17.16 181.692519,18.1185" id="Fill-34" fill="#FFFFFF" mask="url(#mask-2)"></path>
  </g>
</svg>
