<svg viewBox="16 23 48 39" version="1.1" xmlns="http://www.w3.org/2000/svg" xmlns:xlink="http://www.w3.org/1999/xlink">
  <defs></defs>
  <path d="M63.3856093,27.6874162 C61.6648961,28.4507225 59.8153283,28.9663752 57.8745566,29.1983604 C59.8555515,28.0108392 61.3772531,26.1304024 62.0935543,23.8895933 C60.2393094,24.9894185 58.185819,25.7878032 55.9999661,26.2180984 C54.2497871,24.3530961 51.7559458,23.188025 48.9959762,23.188025 C43.6967971,23.188025 39.4001591,27.4841953 39.4001591,32.7833743 C39.4001591,33.5354555 39.4850489,34.2678928 39.6485143,34.9701627 C31.6735538,34.5700349 24.6031487,30.7497618 19.8703691,24.9442843 C19.0443894,26.3614522 18.5710647,28.0096699 18.5710647,29.7682677 C18.5710647,33.0974431 20.2651182,36.0344417 22.8398738,37.7551549 C21.2669577,37.7053435 19.7873502,37.2736452 18.4936583,36.5550054 C18.4927229,36.5949948 18.4927229,36.635218 18.4927229,36.6756751 C18.4927229,41.3247343 21.8003835,45.2030037 26.1900962,46.0846412 C25.3849296,46.3039982 24.5372013,46.4211601 23.6621118,46.4211601 C23.0437963,46.4211601 22.4427861,46.3608252 21.8567428,46.249042 C23.0779393,50.0611302 26.6215607,52.8355988 30.8206807,52.9127714 C27.5366395,55.4865915 23.3992576,57.0204536 18.9033742,57.0204536 C18.1288428,57.0204536 17.3650688,56.9750855 16.6143907,56.8862202 C20.8609835,59.6090067 25.9047917,61.197825 31.3237051,61.197825 C48.973526,61.197825 58.6254685,46.5762067 58.6254685,33.8958278 C58.6254685,33.4797978 58.6161142,33.0661063 58.5976396,32.6542858 C60.4724639,31.3016621 62.0991669,29.6115841 63.3856093,27.6874162 L63.3856093,27.6874162 Z" id="Page-1" stroke="none" fill="#FFFFFF" fill-rule="evenodd"></path>
</svg>
