
<svg width="64px" height="64px" viewBox="1473 856 64 64" version="1.1" xmlns="http://www.w3.org/2000/svg" xmlns:xlink="http://www.w3.org/1999/xlink">
  <!-- Generator: Sketch 39.1 (31720) - http://www.bohemiancoding.com/sketch -->
  <desc>Created with Sketch.</desc>
  <defs></defs>
  <path d="M1519.4,900.8 L1492.2,900.8 C1486.888,900.8 1482.6,896.512 1482.6,891.2 C1482.6,885.888 1486.888,881.6 1492.2,881.6 L1492.648,881.632 C1494.056,876.096 1499.016,872 1505,872 C1512.072,872 1517.8,877.728 1517.8,884.8 L1519.4,884.8 C1523.816,884.8 1527.4,888.384 1527.4,892.8 C1527.4,897.216 1523.816,900.8 1519.4,900.8 M1505,856 C1487.336,856 1473,870.336 1473,888 C1473,905.664 1487.336,920 1505,920 C1522.664,920 1537,905.664 1537,888 C1537,870.336 1522.664,856 1505,856" id="Page-1" stroke="none" fill="#FFFFFF" fill-rule="evenodd"></path>
</svg>
