
<svg width="36px" height="36px" viewBox="0 0 36 36" version="1.1" xmlns="http://www.w3.org/2000/svg" xmlns:xlink="http://www.w3.org/1999/xlink">
  <!-- Generator: Sketch 39.1 (31720) - http://www.bohemiancoding.com/sketch -->
  <desc>Created with Sketch.</desc>
  <defs></defs>
  <path d="M0,18 C0,27.936 8.064,36 18,36 C27.936,36 36,27.936 36,18 C36,8.064 27.936,0 18,0 C8.064,0 0,8.064 0,18 Z M28,23.4893617 L28,21.4468085 C28,21.2340426 27.7446809,21.106383 27.5744681,21.2340426 C25.4893617,22.893617 21.7446809,23.7446809 18,23.7446809 C14.2978723,23.7446809 10.5531915,22.893617 8.42553191,21.2340426 C8.25531915,21.106383 8,21.2340426 8,21.4468085 L8,23.4893617 L8,23.6595745 C8,26.0425532 12.4680851,28 18,28 C23.5319149,28 28,26.0425532 28,23.6170213 L28,23.4893617 Z M28,17.787234 L28,15.7446809 C28,15.5319149 27.7446809,15.4042553 27.5744681,15.5319149 C25.4893617,17.1914894 21.7446809,18.0425532 18,18.0425532 C14.2978723,18.0425532 10.5531915,17.1914894 8.42553191,15.5319149 C8.25531915,15.4042553 8,15.5319149 8,15.7446809 L8,17.787234 L8,17.9574468 C8,20.3404255 12.4680851,22.2978723 18,22.2978723 C23.5319149,22.2978723 28,20.3404255 28,17.9148936 L28,17.787234 Z M18,8 C23.5229787,8 28,9.96212766 28,12.3829787 C28,14.8038298 23.5229787,16.7659574 18,16.7659574 C12.4770213,16.7659574 8,14.8038298 8,12.3829787 C8,9.96212766 12.4770213,8 18,8 Z" id="Combined-Shape" stroke="none" fill="#FFFFFF" fill-rule="evenodd"></path>
</svg>
