<svg width="64px" height="64px" viewBox="1699 856 64 64" version="1.1" xmlns="http://www.w3.org/2000/svg" xmlns:xlink="http://www.w3.org/1999/xlink">
  <!-- Generator: Sketch 39.1 (31720) - http://www.bohemiancoding.com/sketch -->
  <desc>Created with Sketch.</desc>
  <defs></defs>
  <path d="M1731,920 C1748.67311,920 1763,905.673112 1763,888 C1763,870.326888 1748.67311,856 1731,856 C1713.32689,856 1699,870.326888 1699,888 C1699,905.673112 1713.32689,920 1731,920 Z M1748.76102,879.890411 L1731.47645,870.127938 L1714.19188,879.890411 L1714.13672,879.890411 L1714.13672,880.985197 L1714.08155,880.985197 L1714.08155,893.014256 L1714.08155,894.125652 L1714.08155,900.422561 L1720.22976,900.422561 L1722.04725,900.422561 L1726.81779,900.422561 L1726.81779,893.372138 C1726.81779,892.298492 1728.86361,891.428703 1731.47645,891.32149 C1734.08775,891.428703 1736.13358,892.298492 1736.13358,893.372138 L1736.13358,900.422561 L1740.1716,900.422561 L1742.72161,900.422561 L1748.77021,900.422561 L1748.77021,894.075821 L1748.77021,893.209052 L1748.77021,879.890411 L1748.76102,879.890411 Z M1731.53622,888.00542 C1731.51476,888.00542 1731.4979,888.00089 1731.47645,888.00089 C1731.455,888.00089 1731.43661,888.00542 1731.41515,888.00542 C1728.31193,888.00542 1725.7941,885.525918 1725.7941,882.466556 C1725.7941,879.407195 1728.31193,876.927693 1731.41515,876.927693 C1731.43661,876.927693 1731.455,876.932223 1731.47645,876.932223 C1731.4979,876.932223 1731.51476,876.927693 1731.53622,876.927693 C1734.64097,876.927693 1737.15726,879.407195 1737.15726,882.466556 C1737.15726,885.525918 1734.64097,888.00542 1731.53622,888.00542 Z M1734.29954,879.229764 L1731.59016,881.656415 C1731.55185,881.651885 1731.51967,881.635274 1731.48135,881.635274 C1730.95725,881.635274 1730.53123,882.055068 1730.53123,882.568485 C1730.53123,883.086432 1730.95725,883.504716 1731.48135,883.504716 C1731.8614,883.504716 1732.18322,883.281228 1732.33493,882.964118 L1734.50489,882.234764 L1732.66747,882.029397 L1734.29954,879.229764 Z" id="Combined-Shape" stroke="none" fill="#FFFFFF " fill-rule="evenodd"></path>
</svg>
