
<svg width="160px" height="160px" viewBox="60 351 160 160" version="1.1" xmlns="http://www.w3.org/2000/svg" xmlns:xlink="http://www.w3.org/1999/xlink">
  <!-- Generator: Sketch 39.1 (31720) - http://www.bohemiancoding.com/sketch -->
  <desc>Created with Sketch.</desc>
  <defs>
    <circle id="path-1" cx="140" cy="431" r="80"></circle>
    <mask id="mask-2" maskContentUnits="userSpaceOnUse" maskUnits="objectBoundingBox" x="0" y="0" width="160" height="160" fill="white">
      <use xlink:href="#path-1"></use>
    </mask>
  </defs>
  <use id="Oval-3" stroke="#F59300" mask="url(#mask-2)" stroke-width="16" fill="#FFFFFF" fill-rule="evenodd" xlink:href="#path-1"></use>
  <g id="Page-1" stroke="none" stroke-width="1" fill="none" fill-rule="evenodd" transform="translate(105.000000, 395.333333)">
    <path d="M41.1790667,19.0363889 L35.6828928,24.0413552 C35.6051754,24.0320118 35.5398928,23.9977525 35.4621754,23.9977525 C34.3990014,23.9977525 33.5347841,24.8635774 33.5347841,25.9225 C33.5347841,26.990766 34.3990014,27.8534764 35.4621754,27.8534764 C36.2331319,27.8534764 36.885958,27.3925337 37.1937188,26.7384933 L41.5956319,25.2342003 L37.8683058,24.8106313 L41.1790667,19.0363889 Z" id="Fill-1" fill="#F59300"></path>
    <g id="Group-5" transform="translate(0.000000, 0.194655)" fill="#F59300">
      <path d="M35.5734667,36.9415236 C35.5299449,36.9415236 35.4957493,36.9321801 35.4522275,36.9321801 C35.4087058,36.9321801 35.3714014,36.9415236 35.3278797,36.9415236 C29.032771,36.9415236 23.9251841,31.8275505 23.9251841,25.5176178 C23.9251841,19.2076852 29.032771,14.0937121 35.3278797,14.0937121 C35.3714014,14.0937121 35.4087058,14.1030556 35.4522275,14.1030556 C35.4957493,14.1030556 35.5299449,14.0937121 35.5734667,14.0937121 C41.8716841,14.0937121 46.9761623,19.2076852 46.9761623,25.5176178 C46.9761623,31.8275505 41.8716841,36.9415236 35.5734667,36.9415236 L35.5734667,36.9415236 Z M70.5152058,20.2043182 L35.4522275,0.0692171717 L0.389249275,20.2043182 L0.277336232,20.2043182 L0.277336232,22.4623148 L0.165423188,22.4623148 L0.165423188,47.2722475 L0.165423188,49.5645034 L0.165423188,62.5518771 L12.6375101,62.5518771 L16.3244232,62.5518771 L26.0017928,62.5518771 L26.0017928,48.0103788 C26.0017928,45.7959848 30.1519014,44.0020455 35.4522275,43.7809175 C40.7494449,44.0020455 44.8995536,45.7959848 44.8995536,48.0103788 L44.8995536,62.5518771 L53.0909667,62.5518771 L58.2638362,62.5518771 L70.533858,62.5518771 L70.533858,49.4617256 L70.533858,47.6740152 L70.533858,20.2043182 L70.5152058,20.2043182 Z" id="Fill-3"></path>
    </g>
  </g>
</svg>
