
<svg viewBox="127 571 1664 504" version="1.1" xmlns="http://www.w3.org/2000/svg" xmlns:xlink="http://www.w3.org/1999/xlink">
  <!-- Generator: Sketch 39.1 (31720) - http://www.bohemiancoding.com/sketch -->
  <desc>Created with Sketch.</desc>
  <defs></defs>
  <g id="wires" stroke="none" stroke-width="1" fill="none" fill-rule="evenodd" transform="translate(180.000000, 874.000000)" stroke-linecap="round" stroke-linejoin="round">
    <path d="M780.5,196.5 L780.5,12.4755451" id="Line" stroke="#8D93A0" stroke-width="6"></path>
    <path d="M-5.68434189e-14,0 L-5.68434189e-14,0 C-5.68434189e-14,44.7350647 43.7241786,87.5454041 97.6492829,95.6178622 L778.00884,197.466047" id="Line" stroke="#8D93A0" stroke-width="6"></path>
    <path d="M782,0 L782,0 C782,44.7350647 825.724179,87.5454041 879.649283,95.6178622 L1560.00884,197.466047" id="Line" stroke="#8D93A0" stroke-width="6" transform="translate(1171.004420, 98.733024) scale(-1, 1) translate(-1171.004420, -98.733024) "></path>
    <path d="M782,0 L782,0 C782,44.7350647 825.135702,90.6734773 878.334354,102.60364 L1301.34217,197.466047" id="Line" stroke="#8D93A0" stroke-width="6" transform="translate(1041.671086, 98.733024) scale(-1, 1) translate(-1041.671086, -98.733024) "></path>
    <path d="M782,0 L782,0 C782,44.7350647 822.384848,98.9744128 872.202683,121.147242 L1043.67551,197.466047" id="Line" stroke="#8D93A0" stroke-width="6" transform="translate(912.837753, 98.733024) scale(-1, 1) translate(-912.837753, -98.733024) "></path>
    <path d="M261,0 L261,0 C261,44.7350647 304.135702,90.6734773 357.334354,102.60364 L780.342173,197.466047" id="Line" stroke="#8D93A0" stroke-width="6"></path>
    <path d="M519,0 L519,0 C519,44.7350647 559.384848,98.9744128 609.202683,121.147242 L780.675506,197.466047" id="Line" stroke="#8D93A0" stroke-width="6"></path>
  </g>
  <g id="lamp" stroke="none" stroke-width="1" fill="none" fill-rule="evenodd" transform="translate(146.000000, 571.000000)">
    <polygon id="Path-4" fill="#FBC02D" points="44.9988996 91.4924132 56.056845 47.1672108 8.34768942 45.907845 20.0157463 90.7765355"></polygon>
    <ellipse id="Oval" fill="#FFF59D" cx="32" cy="81.871345" rx="14.5454545" ry="10.5263158"></ellipse>
    <path d="M56.3906909,42.6150013 L7.27767273,42.6150013 C6.15941818,42.6150013 5.49207273,41.9994915 5.49207273,41.6555301 C5.49207273,41.3115688 6.15941818,40.696059 7.27767273,40.696059 L15.4752,40.696059 C16.9902545,40.696059 18.2257455,39.4469362 18.2257455,37.9353166 C18.2257455,36.4055937 16.9902545,35.1745741 15.4752,35.1745741 L13.7256727,35.1745741 L16.0433455,26.2496822 L16.0433455,25.8966692 C16.0433455,24.6656496 16.9361455,24.1859141 17.4592,23.9958302 L46.2091636,23.9958302 C46.7682909,24.1859141 47.6340364,24.6837529 47.6340364,25.8966692 L47.6340364,26.2406306 L49.9517091,35.1655225 L25.0885818,35.1655225 C23.5825455,35.1655225 22.3470545,36.3965421 22.3470545,37.9262649 C22.3470545,39.4378846 23.5825455,40.6870074 25.0885818,40.6870074 L56.3906909,40.6870074 C57.5089455,40.6870074 58.1853091,41.3025172 58.1853091,41.6464785 C58.1853091,41.9904399 57.5089455,42.6150013 56.3906909,42.6150013 L56.3906909,42.6150013 Z M41.9796364,88.3166031 L34.4674909,88.3166031 L34.4674909,59.1704043 C34.4674909,57.6587846 33.232,56.4096618 31.7259636,56.4096618 C30.2018909,56.4096618 28.9754182,57.6587846 28.9754182,59.1704043 L28.9754182,88.3166031 L21.6526545,88.3166031 L10.9390545,48.1274345 L52.7022545,48.1274345 L41.9796364,88.3166031 Z M43.4586182,95.7751335 L19.9752727,95.7751335 C19.8941091,95.5669464 19.8219636,95.2410882 19.8219636,94.8066107 C19.8219636,94.3811848 19.8850909,94.0553267 19.9752727,93.8471396 L43.4586182,93.8471396 C43.5397818,94.0553267 43.6119273,94.3902365 43.6119273,94.8066107 C43.6119273,95.2410882 43.5397818,95.5578947 43.4586182,95.7751335 L43.4586182,95.7751335 Z M37.3803636,162.910959 C37.4164364,163.182507 37.4434909,163.499314 37.4434909,163.87043 C37.4434909,164.241546 37.4164364,164.558352 37.3803636,164.829901 L26.0535273,164.829901 C26.0264727,164.558352 25.9994182,164.241546 25.9994182,163.87043 C25.9994182,163.499314 26.0264727,163.182507 26.0535273,162.910959 L37.3803636,162.910959 Z M20.4893091,18.4743453 C20.4893091,17.2885838 20.9131636,16.7726417 21.1927273,16.5735062 L42.4846545,16.5735062 C42.7371636,16.7635901 43.1970909,17.2795322 43.1970909,18.4743453 L43.2061091,18.5196034 L20.4802909,18.4833969 L20.4802909,18.4743453 L20.4893091,18.4743453 Z M31.7169455,5.52148487 C32.6909091,5.52148487 33.4845091,6.31802695 33.4845091,7.29560132 C33.4845091,8.28222731 32.6909091,9.07876939 31.7169455,9.07876939 C30.7429818,9.07876939 29.9403636,8.28222731 29.9403636,7.29560132 C29.9493818,6.31802695 30.7429818,5.52148487 31.7169455,5.52148487 L31.7169455,5.52148487 Z M55.6331636,35.1655225 L53.1170909,25.5165014 C52.9637818,22.0406814 50.7453091,20.0493262 48.8064,19.1351131 C48.5809455,13.7312993 45.5598545,11.6675311 43.7832727,11.1696923 L43.4135273,11.0520214 L37.9304727,11.0520214 C38.5888,9.956776 38.9765818,8.67144673 38.9765818,7.29560132 C38.9765818,3.26763285 35.7300364,0 31.7169455,0 C27.7038545,0 24.4482909,3.25858124 24.4482909,7.29560132 C24.4482909,8.67144673 24.8270545,9.956776 25.4944,11.0520214 L20.2458182,11.0520214 L19.8670545,11.1696923 C18.0814545,11.6675311 15.0603636,13.7312993 14.9792,18.2661581 C12.9410909,20.0402746 10.7045818,22.0406814 10.5512727,25.5165014 L8.0352,35.1655225 L7.27767273,35.1655225 C3.25556364,35.1655225 0,38.0710908 0,41.6464785 C0,44.57015 2.16436364,47.0412408 5.1584,47.8558861 L16.2958545,89.5928808 C15.0874182,90.7695906 14.3298909,92.6251716 14.3298909,94.7975591 C14.3298909,98.4906178 16.4852364,101.278515 19.3530182,101.278515 L28.9573818,101.278515 L28.9573818,157.389474 L24.5565091,157.389474 C22.0855273,157.389474 20.4893091,159.923926 20.4893091,163.87043 C20.4893091,167.816934 22.0855273,170.351386 24.5565091,170.351386 L28.9573818,170.351386 L28.9573818,197.207526 C28.9573818,198.737249 30.1838545,199.968268 31.7079273,199.968268 C33.2139636,199.968268 34.4494545,198.737249 34.4494545,197.207526 L34.4494545,170.351386 L38.8593455,170.351386 C41.3303273,170.351386 42.9265455,167.816934 42.9265455,163.87043 C42.9265455,159.923926 41.3303273,157.389474 38.8593455,157.389474 L34.4494545,157.389474 L34.4494545,101.278515 L44.0628364,101.278515 C46.9306182,101.278515 49.0859636,98.4906178 49.0859636,94.7975591 C49.0859636,92.7066362 48.4005818,90.8963132 47.2642909,89.7196034 L58.4378182,47.8558861 C61.4679273,47.059344 63.6593455,44.5882532 63.6593455,41.6374269 C63.6773818,38.0801424 60.4128,35.1655225 56.3906909,35.1655225 L55.6331636,35.1655225 Z" id="Fill-1" fill="#000000"></path>
  </g>
  <g id="lamp" stroke="none" stroke-width="1" fill="none" fill-rule="evenodd" transform="translate(406.666667, 571.000000)">
    <path d="M56.3906909,42.6150013 L7.27767273,42.6150013 C6.15941818,42.6150013 5.49207273,41.9994915 5.49207273,41.6555301 C5.49207273,41.3115688 6.15941818,40.696059 7.27767273,40.696059 L15.4752,40.696059 C16.9902545,40.696059 18.2257455,39.4469362 18.2257455,37.9353166 C18.2257455,36.4055937 16.9902545,35.1745741 15.4752,35.1745741 L13.7256727,35.1745741 L16.0433455,26.2496822 L16.0433455,25.8966692 C16.0433455,24.6656496 16.9361455,24.1859141 17.4592,23.9958302 L46.2091636,23.9958302 C46.7682909,24.1859141 47.6340364,24.6837529 47.6340364,25.8966692 L47.6340364,26.2406306 L49.9517091,35.1655225 L25.0885818,35.1655225 C23.5825455,35.1655225 22.3470545,36.3965421 22.3470545,37.9262649 C22.3470545,39.4378846 23.5825455,40.6870074 25.0885818,40.6870074 L56.3906909,40.6870074 C57.5089455,40.6870074 58.1853091,41.3025172 58.1853091,41.6464785 C58.1853091,41.9904399 57.5089455,42.6150013 56.3906909,42.6150013 L56.3906909,42.6150013 Z M41.9796364,88.3166031 L34.4674909,88.3166031 L34.4674909,59.1704043 C34.4674909,57.6587846 33.232,56.4096618 31.7259636,56.4096618 C30.2018909,56.4096618 28.9754182,57.6587846 28.9754182,59.1704043 L28.9754182,88.3166031 L21.6526545,88.3166031 L10.9390545,48.1274345 L52.7022545,48.1274345 L41.9796364,88.3166031 Z M43.4586182,95.7751335 L19.9752727,95.7751335 C19.8941091,95.5669464 19.8219636,95.2410882 19.8219636,94.8066107 C19.8219636,94.3811848 19.8850909,94.0553267 19.9752727,93.8471396 L43.4586182,93.8471396 C43.5397818,94.0553267 43.6119273,94.3902365 43.6119273,94.8066107 C43.6119273,95.2410882 43.5397818,95.5578947 43.4586182,95.7751335 L43.4586182,95.7751335 Z M37.3803636,162.910959 C37.4164364,163.182507 37.4434909,163.499314 37.4434909,163.87043 C37.4434909,164.241546 37.4164364,164.558352 37.3803636,164.829901 L26.0535273,164.829901 C26.0264727,164.558352 25.9994182,164.241546 25.9994182,163.87043 C25.9994182,163.499314 26.0264727,163.182507 26.0535273,162.910959 L37.3803636,162.910959 Z M20.4893091,18.4743453 C20.4893091,17.2885838 20.9131636,16.7726417 21.1927273,16.5735062 L42.4846545,16.5735062 C42.7371636,16.7635901 43.1970909,17.2795322 43.1970909,18.4743453 L43.2061091,18.5196034 L20.4802909,18.4833969 L20.4802909,18.4743453 L20.4893091,18.4743453 Z M31.7169455,5.52148487 C32.6909091,5.52148487 33.4845091,6.31802695 33.4845091,7.29560132 C33.4845091,8.28222731 32.6909091,9.07876939 31.7169455,9.07876939 C30.7429818,9.07876939 29.9403636,8.28222731 29.9403636,7.29560132 C29.9493818,6.31802695 30.7429818,5.52148487 31.7169455,5.52148487 L31.7169455,5.52148487 Z M55.6331636,35.1655225 L53.1170909,25.5165014 C52.9637818,22.0406814 50.7453091,20.0493262 48.8064,19.1351131 C48.5809455,13.7312993 45.5598545,11.6675311 43.7832727,11.1696923 L43.4135273,11.0520214 L37.9304727,11.0520214 C38.5888,9.956776 38.9765818,8.67144673 38.9765818,7.29560132 C38.9765818,3.26763285 35.7300364,0 31.7169455,0 C27.7038545,0 24.4482909,3.25858124 24.4482909,7.29560132 C24.4482909,8.67144673 24.8270545,9.956776 25.4944,11.0520214 L20.2458182,11.0520214 L19.8670545,11.1696923 C18.0814545,11.6675311 15.0603636,13.7312993 14.9792,18.2661581 C12.9410909,20.0402746 10.7045818,22.0406814 10.5512727,25.5165014 L8.0352,35.1655225 L7.27767273,35.1655225 C3.25556364,35.1655225 0,38.0710908 0,41.6464785 C0,44.57015 2.16436364,47.0412408 5.1584,47.8558861 L16.2958545,89.5928808 C15.0874182,90.7695906 14.3298909,92.6251716 14.3298909,94.7975591 C14.3298909,98.4906178 16.4852364,101.278515 19.3530182,101.278515 L28.9573818,101.278515 L28.9573818,157.389474 L24.5565091,157.389474 C22.0855273,157.389474 20.4893091,159.923926 20.4893091,163.87043 C20.4893091,167.816934 22.0855273,170.351386 24.5565091,170.351386 L28.9573818,170.351386 L28.9573818,197.207526 C28.9573818,198.737249 30.1838545,199.968268 31.7079273,199.968268 C33.2139636,199.968268 34.4494545,198.737249 34.4494545,197.207526 L34.4494545,170.351386 L38.8593455,170.351386 C41.3303273,170.351386 42.9265455,167.816934 42.9265455,163.87043 C42.9265455,159.923926 41.3303273,157.389474 38.8593455,157.389474 L34.4494545,157.389474 L34.4494545,101.278515 L44.0628364,101.278515 C46.9306182,101.278515 49.0859636,98.4906178 49.0859636,94.7975591 C49.0859636,92.7066362 48.4005818,90.8963132 47.2642909,89.7196034 L58.4378182,47.8558861 C61.4679273,47.059344 63.6593455,44.5882532 63.6593455,41.6374269 C63.6773818,38.0801424 60.4128,35.1655225 56.3906909,35.1655225 L55.6331636,35.1655225 Z" id="Fill-1" fill="#000000"></path>
  </g>
  <g id="lamp" stroke="none" stroke-width="1" fill="none" fill-rule="evenodd" transform="translate(667.333333, 571.000000)">
    <polygon id="Path-4" fill="#FBC02D" points="44.9988996 91.4924132 56.056845 47.1672108 8.34768942 45.907845 20.0157463 90.7765355"></polygon>
    <ellipse id="Oval" fill="#FFF59D" cx="32" cy="81.871345" rx="14.5454545" ry="10.5263158"></ellipse>
    <path d="M56.3906909,42.6150013 L7.27767273,42.6150013 C6.15941818,42.6150013 5.49207273,41.9994915 5.49207273,41.6555301 C5.49207273,41.3115688 6.15941818,40.696059 7.27767273,40.696059 L15.4752,40.696059 C16.9902545,40.696059 18.2257455,39.4469362 18.2257455,37.9353166 C18.2257455,36.4055937 16.9902545,35.1745741 15.4752,35.1745741 L13.7256727,35.1745741 L16.0433455,26.2496822 L16.0433455,25.8966692 C16.0433455,24.6656496 16.9361455,24.1859141 17.4592,23.9958302 L46.2091636,23.9958302 C46.7682909,24.1859141 47.6340364,24.6837529 47.6340364,25.8966692 L47.6340364,26.2406306 L49.9517091,35.1655225 L25.0885818,35.1655225 C23.5825455,35.1655225 22.3470545,36.3965421 22.3470545,37.9262649 C22.3470545,39.4378846 23.5825455,40.6870074 25.0885818,40.6870074 L56.3906909,40.6870074 C57.5089455,40.6870074 58.1853091,41.3025172 58.1853091,41.6464785 C58.1853091,41.9904399 57.5089455,42.6150013 56.3906909,42.6150013 L56.3906909,42.6150013 Z M41.9796364,88.3166031 L34.4674909,88.3166031 L34.4674909,59.1704043 C34.4674909,57.6587846 33.232,56.4096618 31.7259636,56.4096618 C30.2018909,56.4096618 28.9754182,57.6587846 28.9754182,59.1704043 L28.9754182,88.3166031 L21.6526545,88.3166031 L10.9390545,48.1274345 L52.7022545,48.1274345 L41.9796364,88.3166031 Z M43.4586182,95.7751335 L19.9752727,95.7751335 C19.8941091,95.5669464 19.8219636,95.2410882 19.8219636,94.8066107 C19.8219636,94.3811848 19.8850909,94.0553267 19.9752727,93.8471396 L43.4586182,93.8471396 C43.5397818,94.0553267 43.6119273,94.3902365 43.6119273,94.8066107 C43.6119273,95.2410882 43.5397818,95.5578947 43.4586182,95.7751335 L43.4586182,95.7751335 Z M37.3803636,162.910959 C37.4164364,163.182507 37.4434909,163.499314 37.4434909,163.87043 C37.4434909,164.241546 37.4164364,164.558352 37.3803636,164.829901 L26.0535273,164.829901 C26.0264727,164.558352 25.9994182,164.241546 25.9994182,163.87043 C25.9994182,163.499314 26.0264727,163.182507 26.0535273,162.910959 L37.3803636,162.910959 Z M20.4893091,18.4743453 C20.4893091,17.2885838 20.9131636,16.7726417 21.1927273,16.5735062 L42.4846545,16.5735062 C42.7371636,16.7635901 43.1970909,17.2795322 43.1970909,18.4743453 L43.2061091,18.5196034 L20.4802909,18.4833969 L20.4802909,18.4743453 L20.4893091,18.4743453 Z M31.7169455,5.52148487 C32.6909091,5.52148487 33.4845091,6.31802695 33.4845091,7.29560132 C33.4845091,8.28222731 32.6909091,9.07876939 31.7169455,9.07876939 C30.7429818,9.07876939 29.9403636,8.28222731 29.9403636,7.29560132 C29.9493818,6.31802695 30.7429818,5.52148487 31.7169455,5.52148487 L31.7169455,5.52148487 Z M55.6331636,35.1655225 L53.1170909,25.5165014 C52.9637818,22.0406814 50.7453091,20.0493262 48.8064,19.1351131 C48.5809455,13.7312993 45.5598545,11.6675311 43.7832727,11.1696923 L43.4135273,11.0520214 L37.9304727,11.0520214 C38.5888,9.956776 38.9765818,8.67144673 38.9765818,7.29560132 C38.9765818,3.26763285 35.7300364,0 31.7169455,0 C27.7038545,0 24.4482909,3.25858124 24.4482909,7.29560132 C24.4482909,8.67144673 24.8270545,9.956776 25.4944,11.0520214 L20.2458182,11.0520214 L19.8670545,11.1696923 C18.0814545,11.6675311 15.0603636,13.7312993 14.9792,18.2661581 C12.9410909,20.0402746 10.7045818,22.0406814 10.5512727,25.5165014 L8.0352,35.1655225 L7.27767273,35.1655225 C3.25556364,35.1655225 0,38.0710908 0,41.6464785 C0,44.57015 2.16436364,47.0412408 5.1584,47.8558861 L16.2958545,89.5928808 C15.0874182,90.7695906 14.3298909,92.6251716 14.3298909,94.7975591 C14.3298909,98.4906178 16.4852364,101.278515 19.3530182,101.278515 L28.9573818,101.278515 L28.9573818,157.389474 L24.5565091,157.389474 C22.0855273,157.389474 20.4893091,159.923926 20.4893091,163.87043 C20.4893091,167.816934 22.0855273,170.351386 24.5565091,170.351386 L28.9573818,170.351386 L28.9573818,197.207526 C28.9573818,198.737249 30.1838545,199.968268 31.7079273,199.968268 C33.2139636,199.968268 34.4494545,198.737249 34.4494545,197.207526 L34.4494545,170.351386 L38.8593455,170.351386 C41.3303273,170.351386 42.9265455,167.816934 42.9265455,163.87043 C42.9265455,159.923926 41.3303273,157.389474 38.8593455,157.389474 L34.4494545,157.389474 L34.4494545,101.278515 L44.0628364,101.278515 C46.9306182,101.278515 49.0859636,98.4906178 49.0859636,94.7975591 C49.0859636,92.7066362 48.4005818,90.8963132 47.2642909,89.7196034 L58.4378182,47.8558861 C61.4679273,47.059344 63.6593455,44.5882532 63.6593455,41.6374269 C63.6773818,38.0801424 60.4128,35.1655225 56.3906909,35.1655225 L55.6331636,35.1655225 Z" id="Fill-1" fill="#000000"></path>
  </g>
  <g id="lamp" stroke="none" stroke-width="1" fill="none" fill-rule="evenodd" transform="translate(928.000000, 571.000000)">
    <path d="M56.3906909,42.6150013 L7.27767273,42.6150013 C6.15941818,42.6150013 5.49207273,41.9994915 5.49207273,41.6555301 C5.49207273,41.3115688 6.15941818,40.696059 7.27767273,40.696059 L15.4752,40.696059 C16.9902545,40.696059 18.2257455,39.4469362 18.2257455,37.9353166 C18.2257455,36.4055937 16.9902545,35.1745741 15.4752,35.1745741 L13.7256727,35.1745741 L16.0433455,26.2496822 L16.0433455,25.8966692 C16.0433455,24.6656496 16.9361455,24.1859141 17.4592,23.9958302 L46.2091636,23.9958302 C46.7682909,24.1859141 47.6340364,24.6837529 47.6340364,25.8966692 L47.6340364,26.2406306 L49.9517091,35.1655225 L25.0885818,35.1655225 C23.5825455,35.1655225 22.3470545,36.3965421 22.3470545,37.9262649 C22.3470545,39.4378846 23.5825455,40.6870074 25.0885818,40.6870074 L56.3906909,40.6870074 C57.5089455,40.6870074 58.1853091,41.3025172 58.1853091,41.6464785 C58.1853091,41.9904399 57.5089455,42.6150013 56.3906909,42.6150013 L56.3906909,42.6150013 Z M41.9796364,88.3166031 L34.4674909,88.3166031 L34.4674909,59.1704043 C34.4674909,57.6587846 33.232,56.4096618 31.7259636,56.4096618 C30.2018909,56.4096618 28.9754182,57.6587846 28.9754182,59.1704043 L28.9754182,88.3166031 L21.6526545,88.3166031 L10.9390545,48.1274345 L52.7022545,48.1274345 L41.9796364,88.3166031 Z M43.4586182,95.7751335 L19.9752727,95.7751335 C19.8941091,95.5669464 19.8219636,95.2410882 19.8219636,94.8066107 C19.8219636,94.3811848 19.8850909,94.0553267 19.9752727,93.8471396 L43.4586182,93.8471396 C43.5397818,94.0553267 43.6119273,94.3902365 43.6119273,94.8066107 C43.6119273,95.2410882 43.5397818,95.5578947 43.4586182,95.7751335 L43.4586182,95.7751335 Z M37.3803636,162.910959 C37.4164364,163.182507 37.4434909,163.499314 37.4434909,163.87043 C37.4434909,164.241546 37.4164364,164.558352 37.3803636,164.829901 L26.0535273,164.829901 C26.0264727,164.558352 25.9994182,164.241546 25.9994182,163.87043 C25.9994182,163.499314 26.0264727,163.182507 26.0535273,162.910959 L37.3803636,162.910959 Z M20.4893091,18.4743453 C20.4893091,17.2885838 20.9131636,16.7726417 21.1927273,16.5735062 L42.4846545,16.5735062 C42.7371636,16.7635901 43.1970909,17.2795322 43.1970909,18.4743453 L43.2061091,18.5196034 L20.4802909,18.4833969 L20.4802909,18.4743453 L20.4893091,18.4743453 Z M31.7169455,5.52148487 C32.6909091,5.52148487 33.4845091,6.31802695 33.4845091,7.29560132 C33.4845091,8.28222731 32.6909091,9.07876939 31.7169455,9.07876939 C30.7429818,9.07876939 29.9403636,8.28222731 29.9403636,7.29560132 C29.9493818,6.31802695 30.7429818,5.52148487 31.7169455,5.52148487 L31.7169455,5.52148487 Z M55.6331636,35.1655225 L53.1170909,25.5165014 C52.9637818,22.0406814 50.7453091,20.0493262 48.8064,19.1351131 C48.5809455,13.7312993 45.5598545,11.6675311 43.7832727,11.1696923 L43.4135273,11.0520214 L37.9304727,11.0520214 C38.5888,9.956776 38.9765818,8.67144673 38.9765818,7.29560132 C38.9765818,3.26763285 35.7300364,0 31.7169455,0 C27.7038545,0 24.4482909,3.25858124 24.4482909,7.29560132 C24.4482909,8.67144673 24.8270545,9.956776 25.4944,11.0520214 L20.2458182,11.0520214 L19.8670545,11.1696923 C18.0814545,11.6675311 15.0603636,13.7312993 14.9792,18.2661581 C12.9410909,20.0402746 10.7045818,22.0406814 10.5512727,25.5165014 L8.0352,35.1655225 L7.27767273,35.1655225 C3.25556364,35.1655225 0,38.0710908 0,41.6464785 C0,44.57015 2.16436364,47.0412408 5.1584,47.8558861 L16.2958545,89.5928808 C15.0874182,90.7695906 14.3298909,92.6251716 14.3298909,94.7975591 C14.3298909,98.4906178 16.4852364,101.278515 19.3530182,101.278515 L28.9573818,101.278515 L28.9573818,157.389474 L24.5565091,157.389474 C22.0855273,157.389474 20.4893091,159.923926 20.4893091,163.87043 C20.4893091,167.816934 22.0855273,170.351386 24.5565091,170.351386 L28.9573818,170.351386 L28.9573818,197.207526 C28.9573818,198.737249 30.1838545,199.968268 31.7079273,199.968268 C33.2139636,199.968268 34.4494545,198.737249 34.4494545,197.207526 L34.4494545,170.351386 L38.8593455,170.351386 C41.3303273,170.351386 42.9265455,167.816934 42.9265455,163.87043 C42.9265455,159.923926 41.3303273,157.389474 38.8593455,157.389474 L34.4494545,157.389474 L34.4494545,101.278515 L44.0628364,101.278515 C46.9306182,101.278515 49.0859636,98.4906178 49.0859636,94.7975591 C49.0859636,92.7066362 48.4005818,90.8963132 47.2642909,89.7196034 L58.4378182,47.8558861 C61.4679273,47.059344 63.6593455,44.5882532 63.6593455,41.6374269 C63.6773818,38.0801424 60.4128,35.1655225 56.3906909,35.1655225 L55.6331636,35.1655225 Z" id="Fill-1" fill="#000000"></path>
  </g>
  <g id="lamp" stroke="none" stroke-width="1" fill="none" fill-rule="evenodd" transform="translate(1188.666667, 571.000000)">
    <path d="M56.3906909,42.6150013 L7.27767273,42.6150013 C6.15941818,42.6150013 5.49207273,41.9994915 5.49207273,41.6555301 C5.49207273,41.3115688 6.15941818,40.696059 7.27767273,40.696059 L15.4752,40.696059 C16.9902545,40.696059 18.2257455,39.4469362 18.2257455,37.9353166 C18.2257455,36.4055937 16.9902545,35.1745741 15.4752,35.1745741 L13.7256727,35.1745741 L16.0433455,26.2496822 L16.0433455,25.8966692 C16.0433455,24.6656496 16.9361455,24.1859141 17.4592,23.9958302 L46.2091636,23.9958302 C46.7682909,24.1859141 47.6340364,24.6837529 47.6340364,25.8966692 L47.6340364,26.2406306 L49.9517091,35.1655225 L25.0885818,35.1655225 C23.5825455,35.1655225 22.3470545,36.3965421 22.3470545,37.9262649 C22.3470545,39.4378846 23.5825455,40.6870074 25.0885818,40.6870074 L56.3906909,40.6870074 C57.5089455,40.6870074 58.1853091,41.3025172 58.1853091,41.6464785 C58.1853091,41.9904399 57.5089455,42.6150013 56.3906909,42.6150013 L56.3906909,42.6150013 Z M41.9796364,88.3166031 L34.4674909,88.3166031 L34.4674909,59.1704043 C34.4674909,57.6587846 33.232,56.4096618 31.7259636,56.4096618 C30.2018909,56.4096618 28.9754182,57.6587846 28.9754182,59.1704043 L28.9754182,88.3166031 L21.6526545,88.3166031 L10.9390545,48.1274345 L52.7022545,48.1274345 L41.9796364,88.3166031 Z M43.4586182,95.7751335 L19.9752727,95.7751335 C19.8941091,95.5669464 19.8219636,95.2410882 19.8219636,94.8066107 C19.8219636,94.3811848 19.8850909,94.0553267 19.9752727,93.8471396 L43.4586182,93.8471396 C43.5397818,94.0553267 43.6119273,94.3902365 43.6119273,94.8066107 C43.6119273,95.2410882 43.5397818,95.5578947 43.4586182,95.7751335 L43.4586182,95.7751335 Z M37.3803636,162.910959 C37.4164364,163.182507 37.4434909,163.499314 37.4434909,163.87043 C37.4434909,164.241546 37.4164364,164.558352 37.3803636,164.829901 L26.0535273,164.829901 C26.0264727,164.558352 25.9994182,164.241546 25.9994182,163.87043 C25.9994182,163.499314 26.0264727,163.182507 26.0535273,162.910959 L37.3803636,162.910959 Z M20.4893091,18.4743453 C20.4893091,17.2885838 20.9131636,16.7726417 21.1927273,16.5735062 L42.4846545,16.5735062 C42.7371636,16.7635901 43.1970909,17.2795322 43.1970909,18.4743453 L43.2061091,18.5196034 L20.4802909,18.4833969 L20.4802909,18.4743453 L20.4893091,18.4743453 Z M31.7169455,5.52148487 C32.6909091,5.52148487 33.4845091,6.31802695 33.4845091,7.29560132 C33.4845091,8.28222731 32.6909091,9.07876939 31.7169455,9.07876939 C30.7429818,9.07876939 29.9403636,8.28222731 29.9403636,7.29560132 C29.9493818,6.31802695 30.7429818,5.52148487 31.7169455,5.52148487 L31.7169455,5.52148487 Z M55.6331636,35.1655225 L53.1170909,25.5165014 C52.9637818,22.0406814 50.7453091,20.0493262 48.8064,19.1351131 C48.5809455,13.7312993 45.5598545,11.6675311 43.7832727,11.1696923 L43.4135273,11.0520214 L37.9304727,11.0520214 C38.5888,9.956776 38.9765818,8.67144673 38.9765818,7.29560132 C38.9765818,3.26763285 35.7300364,0 31.7169455,0 C27.7038545,0 24.4482909,3.25858124 24.4482909,7.29560132 C24.4482909,8.67144673 24.8270545,9.956776 25.4944,11.0520214 L20.2458182,11.0520214 L19.8670545,11.1696923 C18.0814545,11.6675311 15.0603636,13.7312993 14.9792,18.2661581 C12.9410909,20.0402746 10.7045818,22.0406814 10.5512727,25.5165014 L8.0352,35.1655225 L7.27767273,35.1655225 C3.25556364,35.1655225 0,38.0710908 0,41.6464785 C0,44.57015 2.16436364,47.0412408 5.1584,47.8558861 L16.2958545,89.5928808 C15.0874182,90.7695906 14.3298909,92.6251716 14.3298909,94.7975591 C14.3298909,98.4906178 16.4852364,101.278515 19.3530182,101.278515 L28.9573818,101.278515 L28.9573818,157.389474 L24.5565091,157.389474 C22.0855273,157.389474 20.4893091,159.923926 20.4893091,163.87043 C20.4893091,167.816934 22.0855273,170.351386 24.5565091,170.351386 L28.9573818,170.351386 L28.9573818,197.207526 C28.9573818,198.737249 30.1838545,199.968268 31.7079273,199.968268 C33.2139636,199.968268 34.4494545,198.737249 34.4494545,197.207526 L34.4494545,170.351386 L38.8593455,170.351386 C41.3303273,170.351386 42.9265455,167.816934 42.9265455,163.87043 C42.9265455,159.923926 41.3303273,157.389474 38.8593455,157.389474 L34.4494545,157.389474 L34.4494545,101.278515 L44.0628364,101.278515 C46.9306182,101.278515 49.0859636,98.4906178 49.0859636,94.7975591 C49.0859636,92.7066362 48.4005818,90.8963132 47.2642909,89.7196034 L58.4378182,47.8558861 C61.4679273,47.059344 63.6593455,44.5882532 63.6593455,41.6374269 C63.6773818,38.0801424 60.4128,35.1655225 56.3906909,35.1655225 L55.6331636,35.1655225 Z" id="Fill-1" fill="#000000"></path>
  </g>
  <g id="lamp" stroke="none" stroke-width="1" fill="none" fill-rule="evenodd" transform="translate(1449.333333, 571.000000)">
    <polygon id="Path-4" fill="#FBC02D" points="44.9988996 91.4924132 56.056845 47.1672108 8.34768942 45.907845 20.0157463 90.7765355"></polygon>
    <ellipse id="Oval" fill="#FFF59D" cx="32" cy="81.871345" rx="14.5454545" ry="10.5263158"></ellipse>
    <path d="M56.3906909,42.6150013 L7.27767273,42.6150013 C6.15941818,42.6150013 5.49207273,41.9994915 5.49207273,41.6555301 C5.49207273,41.3115688 6.15941818,40.696059 7.27767273,40.696059 L15.4752,40.696059 C16.9902545,40.696059 18.2257455,39.4469362 18.2257455,37.9353166 C18.2257455,36.4055937 16.9902545,35.1745741 15.4752,35.1745741 L13.7256727,35.1745741 L16.0433455,26.2496822 L16.0433455,25.8966692 C16.0433455,24.6656496 16.9361455,24.1859141 17.4592,23.9958302 L46.2091636,23.9958302 C46.7682909,24.1859141 47.6340364,24.6837529 47.6340364,25.8966692 L47.6340364,26.2406306 L49.9517091,35.1655225 L25.0885818,35.1655225 C23.5825455,35.1655225 22.3470545,36.3965421 22.3470545,37.9262649 C22.3470545,39.4378846 23.5825455,40.6870074 25.0885818,40.6870074 L56.3906909,40.6870074 C57.5089455,40.6870074 58.1853091,41.3025172 58.1853091,41.6464785 C58.1853091,41.9904399 57.5089455,42.6150013 56.3906909,42.6150013 L56.3906909,42.6150013 Z M41.9796364,88.3166031 L34.4674909,88.3166031 L34.4674909,59.1704043 C34.4674909,57.6587846 33.232,56.4096618 31.7259636,56.4096618 C30.2018909,56.4096618 28.9754182,57.6587846 28.9754182,59.1704043 L28.9754182,88.3166031 L21.6526545,88.3166031 L10.9390545,48.1274345 L52.7022545,48.1274345 L41.9796364,88.3166031 Z M43.4586182,95.7751335 L19.9752727,95.7751335 C19.8941091,95.5669464 19.8219636,95.2410882 19.8219636,94.8066107 C19.8219636,94.3811848 19.8850909,94.0553267 19.9752727,93.8471396 L43.4586182,93.8471396 C43.5397818,94.0553267 43.6119273,94.3902365 43.6119273,94.8066107 C43.6119273,95.2410882 43.5397818,95.5578947 43.4586182,95.7751335 L43.4586182,95.7751335 Z M37.3803636,162.910959 C37.4164364,163.182507 37.4434909,163.499314 37.4434909,163.87043 C37.4434909,164.241546 37.4164364,164.558352 37.3803636,164.829901 L26.0535273,164.829901 C26.0264727,164.558352 25.9994182,164.241546 25.9994182,163.87043 C25.9994182,163.499314 26.0264727,163.182507 26.0535273,162.910959 L37.3803636,162.910959 Z M20.4893091,18.4743453 C20.4893091,17.2885838 20.9131636,16.7726417 21.1927273,16.5735062 L42.4846545,16.5735062 C42.7371636,16.7635901 43.1970909,17.2795322 43.1970909,18.4743453 L43.2061091,18.5196034 L20.4802909,18.4833969 L20.4802909,18.4743453 L20.4893091,18.4743453 Z M31.7169455,5.52148487 C32.6909091,5.52148487 33.4845091,6.31802695 33.4845091,7.29560132 C33.4845091,8.28222731 32.6909091,9.07876939 31.7169455,9.07876939 C30.7429818,9.07876939 29.9403636,8.28222731 29.9403636,7.29560132 C29.9493818,6.31802695 30.7429818,5.52148487 31.7169455,5.52148487 L31.7169455,5.52148487 Z M55.6331636,35.1655225 L53.1170909,25.5165014 C52.9637818,22.0406814 50.7453091,20.0493262 48.8064,19.1351131 C48.5809455,13.7312993 45.5598545,11.6675311 43.7832727,11.1696923 L43.4135273,11.0520214 L37.9304727,11.0520214 C38.5888,9.956776 38.9765818,8.67144673 38.9765818,7.29560132 C38.9765818,3.26763285 35.7300364,0 31.7169455,0 C27.7038545,0 24.4482909,3.25858124 24.4482909,7.29560132 C24.4482909,8.67144673 24.8270545,9.956776 25.4944,11.0520214 L20.2458182,11.0520214 L19.8670545,11.1696923 C18.0814545,11.6675311 15.0603636,13.7312993 14.9792,18.2661581 C12.9410909,20.0402746 10.7045818,22.0406814 10.5512727,25.5165014 L8.0352,35.1655225 L7.27767273,35.1655225 C3.25556364,35.1655225 0,38.0710908 0,41.6464785 C0,44.57015 2.16436364,47.0412408 5.1584,47.8558861 L16.2958545,89.5928808 C15.0874182,90.7695906 14.3298909,92.6251716 14.3298909,94.7975591 C14.3298909,98.4906178 16.4852364,101.278515 19.3530182,101.278515 L28.9573818,101.278515 L28.9573818,157.389474 L24.5565091,157.389474 C22.0855273,157.389474 20.4893091,159.923926 20.4893091,163.87043 C20.4893091,167.816934 22.0855273,170.351386 24.5565091,170.351386 L28.9573818,170.351386 L28.9573818,197.207526 C28.9573818,198.737249 30.1838545,199.968268 31.7079273,199.968268 C33.2139636,199.968268 34.4494545,198.737249 34.4494545,197.207526 L34.4494545,170.351386 L38.8593455,170.351386 C41.3303273,170.351386 42.9265455,167.816934 42.9265455,163.87043 C42.9265455,159.923926 41.3303273,157.389474 38.8593455,157.389474 L34.4494545,157.389474 L34.4494545,101.278515 L44.0628364,101.278515 C46.9306182,101.278515 49.0859636,98.4906178 49.0859636,94.7975591 C49.0859636,92.7066362 48.4005818,90.8963132 47.2642909,89.7196034 L58.4378182,47.8558861 C61.4679273,47.059344 63.6593455,44.5882532 63.6593455,41.6374269 C63.6773818,38.0801424 60.4128,35.1655225 56.3906909,35.1655225 L55.6331636,35.1655225 Z" id="Fill-1" fill="#000000"></path>
  </g>
  <g id="lamp" stroke="none" stroke-width="1" fill="none" fill-rule="evenodd" transform="translate(1710.000000, 571.000000)">
    <path d="M56.3906909,42.6150013 L7.27767273,42.6150013 C6.15941818,42.6150013 5.49207273,41.9994915 5.49207273,41.6555301 C5.49207273,41.3115688 6.15941818,40.696059 7.27767273,40.696059 L15.4752,40.696059 C16.9902545,40.696059 18.2257455,39.4469362 18.2257455,37.9353166 C18.2257455,36.4055937 16.9902545,35.1745741 15.4752,35.1745741 L13.7256727,35.1745741 L16.0433455,26.2496822 L16.0433455,25.8966692 C16.0433455,24.6656496 16.9361455,24.1859141 17.4592,23.9958302 L46.2091636,23.9958302 C46.7682909,24.1859141 47.6340364,24.6837529 47.6340364,25.8966692 L47.6340364,26.2406306 L49.9517091,35.1655225 L25.0885818,35.1655225 C23.5825455,35.1655225 22.3470545,36.3965421 22.3470545,37.9262649 C22.3470545,39.4378846 23.5825455,40.6870074 25.0885818,40.6870074 L56.3906909,40.6870074 C57.5089455,40.6870074 58.1853091,41.3025172 58.1853091,41.6464785 C58.1853091,41.9904399 57.5089455,42.6150013 56.3906909,42.6150013 L56.3906909,42.6150013 Z M41.9796364,88.3166031 L34.4674909,88.3166031 L34.4674909,59.1704043 C34.4674909,57.6587846 33.232,56.4096618 31.7259636,56.4096618 C30.2018909,56.4096618 28.9754182,57.6587846 28.9754182,59.1704043 L28.9754182,88.3166031 L21.6526545,88.3166031 L10.9390545,48.1274345 L52.7022545,48.1274345 L41.9796364,88.3166031 Z M43.4586182,95.7751335 L19.9752727,95.7751335 C19.8941091,95.5669464 19.8219636,95.2410882 19.8219636,94.8066107 C19.8219636,94.3811848 19.8850909,94.0553267 19.9752727,93.8471396 L43.4586182,93.8471396 C43.5397818,94.0553267 43.6119273,94.3902365 43.6119273,94.8066107 C43.6119273,95.2410882 43.5397818,95.5578947 43.4586182,95.7751335 L43.4586182,95.7751335 Z M37.3803636,162.910959 C37.4164364,163.182507 37.4434909,163.499314 37.4434909,163.87043 C37.4434909,164.241546 37.4164364,164.558352 37.3803636,164.829901 L26.0535273,164.829901 C26.0264727,164.558352 25.9994182,164.241546 25.9994182,163.87043 C25.9994182,163.499314 26.0264727,163.182507 26.0535273,162.910959 L37.3803636,162.910959 Z M20.4893091,18.4743453 C20.4893091,17.2885838 20.9131636,16.7726417 21.1927273,16.5735062 L42.4846545,16.5735062 C42.7371636,16.7635901 43.1970909,17.2795322 43.1970909,18.4743453 L43.2061091,18.5196034 L20.4802909,18.4833969 L20.4802909,18.4743453 L20.4893091,18.4743453 Z M31.7169455,5.52148487 C32.6909091,5.52148487 33.4845091,6.31802695 33.4845091,7.29560132 C33.4845091,8.28222731 32.6909091,9.07876939 31.7169455,9.07876939 C30.7429818,9.07876939 29.9403636,8.28222731 29.9403636,7.29560132 C29.9493818,6.31802695 30.7429818,5.52148487 31.7169455,5.52148487 L31.7169455,5.52148487 Z M55.6331636,35.1655225 L53.1170909,25.5165014 C52.9637818,22.0406814 50.7453091,20.0493262 48.8064,19.1351131 C48.5809455,13.7312993 45.5598545,11.6675311 43.7832727,11.1696923 L43.4135273,11.0520214 L37.9304727,11.0520214 C38.5888,9.956776 38.9765818,8.67144673 38.9765818,7.29560132 C38.9765818,3.26763285 35.7300364,0 31.7169455,0 C27.7038545,0 24.4482909,3.25858124 24.4482909,7.29560132 C24.4482909,8.67144673 24.8270545,9.956776 25.4944,11.0520214 L20.2458182,11.0520214 L19.8670545,11.1696923 C18.0814545,11.6675311 15.0603636,13.7312993 14.9792,18.2661581 C12.9410909,20.0402746 10.7045818,22.0406814 10.5512727,25.5165014 L8.0352,35.1655225 L7.27767273,35.1655225 C3.25556364,35.1655225 0,38.0710908 0,41.6464785 C0,44.57015 2.16436364,47.0412408 5.1584,47.8558861 L16.2958545,89.5928808 C15.0874182,90.7695906 14.3298909,92.6251716 14.3298909,94.7975591 C14.3298909,98.4906178 16.4852364,101.278515 19.3530182,101.278515 L28.9573818,101.278515 L28.9573818,157.389474 L24.5565091,157.389474 C22.0855273,157.389474 20.4893091,159.923926 20.4893091,163.87043 C20.4893091,167.816934 22.0855273,170.351386 24.5565091,170.351386 L28.9573818,170.351386 L28.9573818,197.207526 C28.9573818,198.737249 30.1838545,199.968268 31.7079273,199.968268 C33.2139636,199.968268 34.4494545,198.737249 34.4494545,197.207526 L34.4494545,170.351386 L38.8593455,170.351386 C41.3303273,170.351386 42.9265455,167.816934 42.9265455,163.87043 C42.9265455,159.923926 41.3303273,157.389474 38.8593455,157.389474 L34.4494545,157.389474 L34.4494545,101.278515 L44.0628364,101.278515 C46.9306182,101.278515 49.0859636,98.4906178 49.0859636,94.7975591 C49.0859636,92.7066362 48.4005818,90.8963132 47.2642909,89.7196034 L58.4378182,47.8558861 C61.4679273,47.059344 63.6593455,44.5882532 63.6593455,41.6374269 C63.6773818,38.0801424 60.4128,35.1655225 56.3906909,35.1655225 L55.6331636,35.1655225 Z" id="Fill-1" fill="#000000"></path>
  </g>
  <g id="Group" stroke="none" stroke-width="1" fill="none" fill-rule="evenodd" transform="translate(127.000000, 801.000000)">
    <circle id="Oval-5" fill="#DD5959" cx="50" cy="50" r="50"></circle>
    <text id="V1" font-family=".SFNSDisplay-Regular, .SF NS Display" font-size="36" font-weight="normal" fill="#FFFFFF">
      <tspan x="28" y="64">V1</tspan>
    </text>
  </g>
  <g id="Group" stroke="none" stroke-width="1" fill="none" fill-rule="evenodd" transform="translate(387.666667, 801.000000)">
    <circle id="Oval-5" fill="#DD5959" cx="50" cy="50" r="50"></circle>
    <text id="V1" font-family=".SFNSDisplay-Regular, .SF NS Display" font-size="36" font-weight="normal" fill="#FFFFFF">
      <tspan x="28" y="64">V1</tspan>
    </text>
  </g>
  <g id="Group" stroke="none" stroke-width="1" fill="none" fill-rule="evenodd" transform="translate(648.333333, 801.000000)">
    <circle id="Oval-5" fill="#DD5959" cx="50" cy="50" r="50"></circle>
    <text id="V1" font-family=".SFNSDisplay-Regular, .SF NS Display" font-size="36" font-weight="normal" fill="#FFFFFF">
      <tspan x="28" y="64">V1</tspan>
    </text>
  </g>
  <g id="Group" stroke="none" stroke-width="1" fill="none" fill-rule="evenodd" transform="translate(909.000000, 801.000000)">
    <circle id="Oval-5" fill="#DD5959" cx="50" cy="50" r="50"></circle>
    <text id="V1" font-family=".SFNSDisplay-Regular, .SF NS Display" font-size="36" font-weight="normal" fill="#FFFFFF">
      <tspan x="28" y="64">V1</tspan>
    </text>
  </g>
  <g id="Group" stroke="none" stroke-width="1" fill="none" fill-rule="evenodd" transform="translate(1169.666667, 801.000000)">
    <circle id="Oval-5" fill="#DD5959" cx="50" cy="50" r="50"></circle>
    <text id="V1" font-family=".SFNSDisplay-Regular, .SF NS Display" font-size="36" font-weight="normal" fill="#FFFFFF">
      <tspan x="28" y="64">V1</tspan>
    </text>
  </g>
  <g id="Group" stroke="none" stroke-width="1" fill="none" fill-rule="evenodd" transform="translate(1430.333333, 801.000000)">
    <circle id="Oval-5" fill="#DD5959" cx="50" cy="50" r="50"></circle>
    <text id="V1" font-family=".SFNSDisplay-Regular, .SF NS Display" font-size="36" font-weight="normal" fill="#FFFFFF">
      <tspan x="28" y="64">V1</tspan>
    </text>
  </g>
  <g id="Group" stroke="none" stroke-width="1" fill="none" fill-rule="evenodd" transform="translate(1691.000000, 801.000000)">
    <circle id="Oval-5" fill="#DD5959" cx="50" cy="50" r="50"></circle>
    <text id="V1" font-family=".SFNSDisplay-Regular, .SF NS Display" font-size="36" font-weight="normal" fill="#FFFFFF">
      <tspan x="28" y="64">V1</tspan>
    </text>
  </g>
</svg>
