<svg viewBox="1406 610 197 340" version="1.1" xmlns="http://www.w3.org/2000/svg" xmlns:xlink="http://www.w3.org/1999/xlink">
  <defs></defs>
  <rect id="Rectangle-4" stroke="none" fill="#353535" fill-rule="evenodd" x="1406" y="610" width="197" height="340" rx="8"></rect>
  <path d="M1519.4,900.8 L1492.2,900.8 C1486.888,900.8 1482.6,896.512 1482.6,891.2 C1482.6,885.888 1486.888,881.6 1492.2,881.6 L1492.648,881.632 C1494.056,876.096 1499.016,872 1505,872 C1512.072,872 1517.8,877.728 1517.8,884.8 L1519.4,884.8 C1523.816,884.8 1527.4,888.384 1527.4,892.8 C1527.4,897.216 1523.816,900.8 1519.4,900.8 M1505,856 C1487.336,856 1473,870.336 1473,888 C1473,905.664 1487.336,920 1505,920 C1522.664,920 1537,905.664 1537,888 C1537,870.336 1522.664,856 1505,856" id="Page-1" stroke="none" fill="#FFFFFF" fill-rule="evenodd"></path>
  <rect id="Rectangle-5" stroke="none" fill="#85BF68" fill-rule="evenodd" x="1436" y="640" width="137" height="16" rx="8"></rect>
  <rect id="Rectangle-5" stroke="none" fill="#85BF68" fill-rule="evenodd" x="1436" y="680" width="137" height="16" rx="8"></rect>
  <rect id="Rectangle-5" stroke="none" fill="#85BF68" fill-rule="evenodd" x="1436" y="720" width="137" height="16" rx="8"></rect>
  <rect id="Rectangle-5" stroke="none" fill="#000000" fill-rule="evenodd" x="1436" y="760" width="137" height="16" rx="8"></rect>
  <rect id="Rectangle-5" stroke="none" fill="#000000" fill-rule="evenodd" x="1436" y="800" width="137" height="16" rx="8"></rect>
</svg>
