<svg _ngcontent-nah-6="" xmlns:xlink="http://www.w3.org/1999/xlink" version="1.1" viewBox="486 386 68 101"
     xmlns="http://www.w3.org/2000/svg">
  <path _ngcontent-nah-6=""
        d="M518.841383,389.526975 C518.841383,391.474761 517.262407,393.053949 515.314408,393.053949 C513.366622,393.053949 511.787433,391.474761 511.787433,389.526975 C511.787433,387.578976 513.366622,386 515.314408,386 C517.262407,386 518.841383,387.578976 518.841383,389.526975 L518.841383,389.526975 Z M528.212779,389.526975 C528.212779,391.474761 526.633803,393.053949 524.685804,393.053949 C522.738018,393.053949 521.15883,391.474761 521.15883,389.526975 C521.15883,387.578976 522.738018,386 524.685804,386 C526.633803,386 528.212779,387.578976 528.212779,389.526975 L528.212779,389.526975 Z M530.243681,452.043197 C530.243681,448.96007 532.743088,446.46045 535.826427,446.46045 C538.909767,446.46045 541.409174,448.96007 541.409174,452.043197 C541.409174,455.126323 538.909767,457.626156 535.826427,457.626156 C532.743088,457.626156 530.243681,455.126111 530.243681,452.043197 L530.243681,452.043197 Z M504.04433,457.625943 C500.96099,457.625943 498.461583,455.126111 498.461583,452.042984 C498.461583,448.959857 500.96099,446.460237 504.04433,446.460237 C507.127669,446.460237 509.627076,448.959857 509.627076,452.042984 C509.627076,455.126111 507.127669,457.625943 504.04433,457.625943 L504.04433,457.625943 Z M498.390371,413.567882 C498.390371,410.166749 500.590054,407.198836 504.735185,407.198836 L535.265028,407.198836 C539.410159,407.198836 541.610054,410.166749 541.610054,413.567882 L541.610054,421.751858 C541.642152,425.684417 538.772446,428.091994 535.265028,428.091994 L504.735185,428.091994 C501.227766,428.091994 498.358061,425.684417 498.390371,421.751858 L498.390371,413.567882 Z M511.735991,399.059925 C511.735991,397.943928 512.70659,397.006491 513.822586,397.006491 L526.177626,397.006491 C527.293623,397.006491 528.264221,397.943928 528.264221,399.059925 L528.264221,402.673628 C528.264221,403.789625 527.346766,404.748957 526.177626,404.748957 L513.822586,404.748957 C512.653447,404.748957 511.735991,403.789625 511.735991,402.673628 L511.735991,399.059925 Z M538.66361,464.25709 C543.555289,463.468664 548.424648,458.366965 548.424648,452.149269 L548.424648,406.689516 C548.424648,400.271578 543.025563,394.380391 535.69017,394.380391 L504.310043,394.380391 C496.974862,394.380391 491.575564,400.271578 491.575564,406.689516 L491.575564,452.149269 C491.575564,458.366965 496.444923,463.468664 501.336603,464.25709 L486.666667,486.261994 L495.130386,486.261994 L505.623518,470.878882 L534.376695,470.878882 L544.869827,486.261994 L553.333333,486.261994 L538.66361,464.25709 Z"
        fill="#FFFFFF" fill-rule="evenodd" id="Page-1" stroke="none"></path>
</svg>
