<svg viewBox="1062 407 330 57" version="1.1" xmlns="http://www.w3.org/2000/svg" xmlns:xlink="http://www.w3.org/1999/xlink">
  <defs>
    <polygon id="path-1" points="0 57 329.891844 57 329.891844 0 0 0"></polygon>
  </defs>
  <g id="Page-1" stroke="none" stroke-width="1" fill="none" fill-rule="evenodd" transform="translate(1062.000000, 407.000000)">
    <path d="M184.583338,32.673 C181.582686,39.798 173.867155,44.3175 166.204533,44.3175 C154.845893,44.3175 145.682189,34.9065 145.682189,23.688 C145.682189,12.576 154.95171,3.324 165.989877,3.324 C173.920064,3.324 181.742922,7.896 184.797994,15.2865 L176.438495,15.2865 C173.972972,12.309 170.007878,10.395 166.042785,10.395 C158.810987,10.395 153.024339,16.617 153.024339,23.9535 C153.024339,30.918 159.024131,37.245 166.097205,37.245 C170.007878,37.245 173.384935,35.4915 176.063603,32.673 L184.583338,32.673 L184.583338,32.673 Z" id="Fill-1" fill="#6D2362"></path>
    <path d="M197.077237,22.5708 C195.415919,24.2193 194.611714,26.3463 194.611714,28.6848 C194.611714,33.4173 198.309243,37.4058 203.184358,37.4058 C208.221221,37.4058 211.91875,33.6303 211.91875,28.6848 C211.91875,23.8473 208.115404,19.8603 203.184358,19.8603 C200.987911,19.8603 198.576807,20.9763 197.077237,22.5708 M219.044732,28.6848 C219.044732,37.4058 211.91875,44.3178 203.184358,44.3178 C194.611714,44.3178 187.485732,37.2453 187.485732,28.6848 C187.485732,19.8603 194.611714,12.9468 203.506342,12.9468 C212.240734,12.9468 219.044732,20.1258 219.044732,28.6848" id="Fill-3" fill="#6D2362"></path>
    <path d="M223.071954,13.9047 L229.662807,13.9047 L229.662807,16.6167 C231.538782,14.1717 234.75409,12.9477 237.860559,12.9477 C240.968539,12.9477 244.183847,14.3307 246.327386,16.6167 C246.594951,16.8822 246.862515,17.1477 247.077171,17.4672 C249.380947,20.6577 249.433855,24.3252 249.433855,28.1007 L249.433855,43.3602 L242.307873,43.3602 L242.307873,29.4837 C242.307873,27.1977 242.307873,24.2727 241.075867,22.3062 C240.058518,20.7627 238.182543,19.8597 236.359477,19.8597 C234.432106,19.8597 232.341475,20.8692 231.377034,22.4652 C230.090608,24.4857 230.199448,27.6747 230.199448,30.0147 L230.199448,43.3602 L223.071954,43.3602 L223.071954,13.9047 Z" id="Fill-5" fill="#6D2362"></path>
    <path d="M70.1446646,30.74025 L94.053135,30.74025 C94.053135,30.24375 94.1075549,29.74425 94.1075549,29.24775 C94.1075549,25.31775 93.2700933,22.16925 91.2731858,19.52025 C88.1591589,15.29325 83.4926536,12.87375 78.324276,12.87375 C74.2065045,12.87375 70.2625744,14.62725 67.1999441,17.81625 C64.4199948,20.73825 62.9824028,24.44025 62.9824028,28.58175 C62.9824028,32.56275 64.5832545,36.58425 67.4191353,39.50475 C70.4228107,42.57525 74.2065045,44.11875 78.5933521,44.11875 C85.1962984,44.11875 90.4750274,40.43925 93.0342738,33.94125 L85.530376,33.94125 C84.0867374,36.31575 81.4745828,37.63725 78.4210225,37.63725 C73.7000972,37.63725 70.5890937,34.99425 70.1446646,30.74025 M86.6097038,25.26075 L70.3683908,25.26075 C71.428067,21.55875 74.6524453,19.19025 78.324276,19.19025 C82.5418172,19.19025 85.4351412,21.28575 86.6097038,25.26075" id="Fill-7" fill="#6D2362"></path>
    <path d="M104.700537,16.13115 L104.700537,4.18215 L97.8557246,4.18215 L97.8557246,43.37865 L104.700537,43.37865 L104.700537,40.98615 C107.481998,43.11615 110.49172,44.10765 114.001803,44.10765 C117.783985,44.10765 121.173135,42.90015 123.791336,40.66215 C127.404212,37.59165 129.404143,33.23415 129.404143,28.49565 C129.404143,24.13965 127.630961,19.94715 124.347628,16.96365 C121.563144,14.37165 117.956315,13.04415 114.050176,13.04415 C110.313344,13.03815 107.371647,13.92165 104.700537,16.13115 M104.978683,28.71315 C104.978683,23.64315 108.706445,19.83915 113.548304,19.83915 C118.396209,19.83915 122.232811,23.85465 122.232811,28.59915 C122.232811,33.51315 118.508072,37.31265 113.223296,37.31265 C108.769935,37.31265 104.978683,33.62715 104.978683,28.71315" id="Fill-9" fill="#6D2362"></path>
    <mask id="mask-2" fill="white">
      <use xlink:href="#path-1"></use>
    </mask>
    <g id="Clip-12"></g>
    <path d="M134.18886,10.743 L140.884018,10.743 L140.884018,4.188 L134.18886,4.188 L134.18886,10.743 Z M134.18886,43.377 L140.884018,43.377 L140.884018,13.773 L134.18886,13.773 L134.18886,43.377 Z" id="Fill-11" fill="#6D2362" mask="url(#mask-2)"></path>
    <polygon id="Fill-13" fill="#6D2362" mask="url(#mask-2)" points="76.3898002 0 58.0533215 0 38.1915744 19.7055 18.3388973 0 -0.000604665411 0 29.0278701 28.623 0.223121537 57 18.5626235 57 38.1976211 37.527 57.8280837 57 76.157004 57 47.3613254 28.623"></polygon>
    <polygon id="Fill-14" fill="#F29200" mask="url(#mask-2)" points="266.992885 16.38825 263.13512 16.38825 261.715667 3.83925 268.410825 3.83925"></polygon>
    <polygon id="Fill-15" fill="#F29200" mask="url(#mask-2)" points="283.287408 43.3464 283.287408 14.8704 276.705625 21.5184 271.90307 16.5174 284.354643 4.1034 291.707374 4.1034 291.707374 43.3464"></polygon>
    <path d="M321.293804,30.873 C321.293804,26.7555 317.73686,24.99 314.001539,24.99 C311.037167,24.99 308.13175,26.343 306.2331,28.6965 C306.588341,32.463 308.72281,36.639 314.237359,36.639 C318.804094,36.639 321.293804,33.579 321.293804,30.873 M297.63627,23.814 C297.63627,11.928 304.396429,3.5145 316.075542,3.5145 C320.878097,3.5145 324.909703,5.1045 327.756166,7.575 L323.96189,13.9875 C321.827421,11.9865 319.575043,10.9275 316.075542,10.9275 C310.266219,10.9275 306.174145,15.8115 306.174145,22.0485 C306.174145,22.3425 306.174145,22.578 306.2331,22.872 C308.071283,20.2245 312.043935,17.8125 316.371828,17.8125 C323.488739,17.8125 329.890635,22.224 329.890635,30.5805 C329.890635,38.2275 323.724559,44.052 314.712021,44.052 C302.676156,44.052 297.63627,34.8735 297.63627,23.814" id="Fill-16" fill="#F29200" mask="url(#mask-2)"></path>
  </g>
</svg>
